M48
;Layer_Color=6321
;FILE_FORMAT=2:5
INCH,TZ
;TYPE=PLATED
T1F00S00C0.01181
T2F00S00C0.03543
T3F00S00C0.03937
T4F00S00C0.04724
T5F00S00C0.09055
;TYPE=NON_PLATED
T6F00S00C0.02362
T7F00S00C0.12598
%
T01
X43307Y39370
X34646Y50394
Y56693
Y64173
X55512Y64567
X62205Y63779
X68898Y39370
X76378Y56693
Y69685
X99213Y70276
Y64764
X94488Y38583
Y32283
X78740Y18898
Y11811
X142913Y12598
Y18898
X169685Y31890
Y38189
X192126Y43701
X200394
X208661
X218111Y42914
X214567Y39370
X219685Y34252
X224016Y29134
X231102Y42913
X227559Y63386
Y74410
X216535
X205512
Y63386
X216535
X194882Y60630
Y66535
Y72835
Y54724
X144488Y64764
Y70276
X240551Y71653
X246457Y72441
X253937
X261024Y68898
Y62598
X261417Y52362
X258268Y49213
X266929Y47638
X257480Y38189
Y34252
X253543Y31102
X243307
X241142Y34252
X243307Y37402
X237008Y43701
X239764Y60236
X246457Y59055
X253937
X231890Y58661
X264567Y74803
X278346
X318110
X311024Y38189
Y31102
X317717Y85039
X278346Y84646
X279528Y79921
X278346Y92520
X278346Y100394
Y108661
X269685Y122047
X261811
X253937
X246850
X239370
X232283Y114173
Y110236
Y106299
X239764Y100787
X243701Y103543
X246850Y97244
X252756Y102362
X261417Y103150
X262992Y100000
X252756Y91732
X249606Y85827
X243307
X238583Y78740
X255118Y79528
X260630Y79921
X231496Y90945
X235433Y95669
X263386Y128740
X247244Y149213
X265748Y168110
X284646Y149606
Y187402
X305118Y170472
X296457Y213386
X324803
X150000Y200787
X149213Y177953
X126378Y178347
X123622Y175197
X120079Y178347
X112598
X109055Y175197
X105118Y178347
X101969Y175197
X98425Y178347
Y196850
X105512
X116142Y200394
Y165354
X112205Y158661
Y152756
X105512
Y158661
X98032
Y152756
X98425Y142126
X105118
X101969Y145276
X109055
X112598Y142126
X116142Y145276
X120079Y142126
X123622Y145276
X127559Y142126
Y133465
X120079Y133071
X112992
X105905
X96457
X94095Y113780
X94095Y105118
X81496Y104724
Y89370
X76772Y82677
X99213Y83858
Y75787
X100591Y96063
X111811Y113779
X120472
X135039
X143701
X145866Y96063
X135827Y94882
X127165Y89370
X118504Y83071
X144488Y82284
Y75394
X186614
Y80709
X194882Y85827
X200787Y90551
X202362Y97244
X204331Y109055
X209842
X214567Y103150
X220866
X216535Y85433
X205512
X227559
X198819Y109055
X207480Y123228
X181496Y125591
Y120079
Y114567
X176772Y150000
X149606Y140551
X145276Y136614
X141339Y132283
X127559Y152756
Y158661
X120079
Y152756
X75984
X80709Y182874
X86614Y212598
X92520
X86614Y228346
X70472Y205512
X66929
X63386Y205512
X50394Y199213
X39370Y196792
X34645
X29921
Y201910
X34645
X39370
X32283Y213779
X22047
X27165Y182677
X42126
X35433Y175197
X57480Y184646
X66535Y184646
X69882Y189961
X73622
X69291Y178347
Y172047
Y165748
X60630Y160630
X55905Y154724
X49606Y148819
X72441Y121260
Y113386
Y104331
X60827Y78346
X34646Y75590
X26378
X19685
Y94488
X26378
X34646
X32283Y232677
X20866
X20472Y255906
X34646
X53150Y257087
X52362Y244882
X48425
X44488
Y233071
X48425
X52362
X53150Y275590
X39370
X70866
Y261811
X78740
X86614
X94488
X95276Y275590
X86614
X78740
X105512
X120472Y266142
X114173Y246442
X110236
X106299
Y231511
X110236
X114173
X126378Y238976
X150787Y239370
X151181Y266535
X144095Y296063
X86614Y250000
X295669Y250394
X290551Y264567
X297047Y275590
X300787
X304528
X311024Y280315
X316929
X309449Y287008
X295276
Y293307
Y299213
X293701Y280906
X322047Y291339
Y301181
X324409Y251181
T02
X345472Y296457
Y304331
X355315
Y296457
T03
X46260Y15354
X63976
X109252
X126969
X154292Y49213
X164292
X174292
X184292
X201535Y17126
X211535
X221535
X231535
X337598Y15354
X355315
X212598Y222047
X58071Y291339
X48228
X80905
X90748
X100591
X110433
X120276
X130118
X212598Y283465
Y273622
Y263779
X212598Y241732
Y231890
X212598Y305512
Y315354
Y325197
X242913Y298228
Y288386
Y278543
Y268701
Y258858
Y249016
T04
X41732Y25197
X68504
X104724
X131496
X333071
X359842
T05
X326693Y315000
X374095
T06
X205906Y184646
X209449
X212992
X216535
X220079
X223622
X227165
X227165Y197244
X223622
X220079
X216535
X212992
X209449
X205906
X177559Y262992
Y266535
Y270079
Y273622
Y277165
Y280709
Y284252
X164961Y284252
Y280709
Y277165
Y273622
Y270079
Y266535
Y262992
X255512Y262992
Y266535
Y270079
Y273622
Y277165
Y280709
Y284252
X268110Y284252
Y280709
Y277165
Y273622
Y270079
Y266535
Y262992
T07
X15748Y15748
X417323
X244094Y208661
X188976
X216535Y169291
X15748Y334646
X145669
X188976Y338583
X244094
X287402Y334646
X417323
M30
