G04*
G04 #@! TF.GenerationSoftware,Altium Limited,Altium Designer,20.1.12 (249)*
G04*
G04 Layer_Color=8150272*
%FSLAX25Y25*%
%MOIN*%
G70*
G04*
G04 #@! TF.SameCoordinates,A01A24DB-8456-4819-8E0F-2EBA4B08BD15*
G04*
G04*
G04 #@! TF.FilePolarity,Negative*
G04*
G01*
G75*
%ADD15R,0.03937X0.21260*%
%ADD18R,0.21260X0.03937*%
%ADD42C,0.03937*%
%ADD43O,0.08268X0.06693*%
G04:AMPARAMS|DCode=44|XSize=66.93mil|YSize=82.68mil|CornerRadius=17.72mil|HoleSize=0mil|Usage=FLASHONLY|Rotation=270.000|XOffset=0mil|YOffset=0mil|HoleType=Round|Shape=RoundedRectangle|*
%AMROUNDEDRECTD44*
21,1,0.06693,0.04724,0,0,270.0*
21,1,0.03150,0.08268,0,0,270.0*
1,1,0.03543,-0.02362,-0.01575*
1,1,0.03543,-0.02362,0.01575*
1,1,0.03543,0.02362,0.01575*
1,1,0.03543,0.02362,-0.01575*
%
%ADD44ROUNDEDRECTD44*%
%ADD45C,0.14567*%
%ADD46C,0.06299*%
G04:AMPARAMS|DCode=47|XSize=62.99mil|YSize=62.99mil|CornerRadius=16.73mil|HoleSize=0mil|Usage=FLASHONLY|Rotation=180.000|XOffset=0mil|YOffset=0mil|HoleType=Round|Shape=RoundedRectangle|*
%AMROUNDEDRECTD47*
21,1,0.06299,0.02953,0,0,180.0*
21,1,0.02953,0.06299,0,0,180.0*
1,1,0.03347,-0.01476,0.01476*
1,1,0.03347,0.01476,0.01476*
1,1,0.03347,0.01476,-0.01476*
1,1,0.03347,-0.01476,-0.01476*
%
%ADD47ROUNDEDRECTD47*%
%ADD48C,0.06693*%
G04:AMPARAMS|DCode=49|XSize=66.93mil|YSize=66.93mil|CornerRadius=17.72mil|HoleSize=0mil|Usage=FLASHONLY|Rotation=180.000|XOffset=0mil|YOffset=0mil|HoleType=Round|Shape=RoundedRectangle|*
%AMROUNDEDRECTD49*
21,1,0.06693,0.03150,0,0,180.0*
21,1,0.03150,0.06693,0,0,180.0*
1,1,0.03543,-0.01575,0.01575*
1,1,0.03543,0.01575,0.01575*
1,1,0.03543,0.01575,-0.01575*
1,1,0.03543,-0.01575,-0.01575*
%
%ADD49ROUNDEDRECTD49*%
G04:AMPARAMS|DCode=50|XSize=66.93mil|YSize=66.93mil|CornerRadius=17.72mil|HoleSize=0mil|Usage=FLASHONLY|Rotation=270.000|XOffset=0mil|YOffset=0mil|HoleType=Round|Shape=RoundedRectangle|*
%AMROUNDEDRECTD50*
21,1,0.06693,0.03150,0,0,270.0*
21,1,0.03150,0.06693,0,0,270.0*
1,1,0.03543,-0.01575,-0.01575*
1,1,0.03543,-0.01575,0.01575*
1,1,0.03543,0.01575,0.01575*
1,1,0.03543,0.01575,-0.01575*
%
%ADD50ROUNDEDRECTD50*%
%ADD51O,0.06693X0.08268*%
G04:AMPARAMS|DCode=52|XSize=66.93mil|YSize=82.68mil|CornerRadius=17.72mil|HoleSize=0mil|Usage=FLASHONLY|Rotation=180.000|XOffset=0mil|YOffset=0mil|HoleType=Round|Shape=RoundedRectangle|*
%AMROUNDEDRECTD52*
21,1,0.06693,0.04724,0,0,180.0*
21,1,0.03150,0.08268,0,0,180.0*
1,1,0.03543,-0.01575,0.02362*
1,1,0.03543,0.01575,0.02362*
1,1,0.03543,0.01575,-0.02362*
1,1,0.03543,-0.01575,-0.02362*
%
%ADD52ROUNDEDRECTD52*%
G04:AMPARAMS|DCode=53|XSize=74.8mil|YSize=90.55mil|CornerRadius=19.68mil|HoleSize=0mil|Usage=FLASHONLY|Rotation=180.000|XOffset=0mil|YOffset=0mil|HoleType=Round|Shape=RoundedRectangle|*
%AMROUNDEDRECTD53*
21,1,0.07480,0.05118,0,0,180.0*
21,1,0.03543,0.09055,0,0,180.0*
1,1,0.03937,-0.01772,0.02559*
1,1,0.03937,0.01772,0.02559*
1,1,0.03937,0.01772,-0.02559*
1,1,0.03937,-0.01772,-0.02559*
%
%ADD53ROUNDEDRECTD53*%
%ADD54C,0.19685*%
%ADD93R,0.03937X0.21260*%
%ADD94R,0.21260X0.03937*%
D15*
X177559Y273622D02*
D03*
X255512Y273622D02*
D03*
D18*
X216535Y184646D02*
D03*
D42*
X164961Y284252D02*
D03*
X177559Y284252D02*
D03*
Y280709D02*
D03*
Y266535D02*
D03*
Y273622D02*
D03*
Y262992D02*
D03*
Y270079D02*
D03*
Y277165D02*
D03*
X164961Y280709D02*
D03*
Y266535D02*
D03*
Y273622D02*
D03*
Y262992D02*
D03*
Y270079D02*
D03*
Y277165D02*
D03*
X220079Y197244D02*
D03*
X212992D02*
D03*
X205906D02*
D03*
X216535D02*
D03*
X209449D02*
D03*
X223622D02*
D03*
X220079Y184646D02*
D03*
X212992D02*
D03*
X205906D02*
D03*
X216535D02*
D03*
X209449D02*
D03*
X223622D02*
D03*
X227165D02*
D03*
X227165Y197244D02*
D03*
X268110Y270079D02*
D03*
Y277165D02*
D03*
Y284252D02*
D03*
Y273622D02*
D03*
Y280709D02*
D03*
Y266535D02*
D03*
X255512Y270079D02*
D03*
Y277165D02*
D03*
Y284252D02*
D03*
Y273622D02*
D03*
Y280709D02*
D03*
Y266535D02*
D03*
Y262992D02*
D03*
X268110Y262992D02*
D03*
D43*
X242913Y268701D02*
D03*
Y258858D02*
D03*
Y278543D02*
D03*
Y288386D02*
D03*
Y249016D02*
D03*
X212598Y231890D02*
D03*
Y241732D02*
D03*
X212598Y273622D02*
D03*
Y283465D02*
D03*
Y325197D02*
D03*
Y315354D02*
D03*
D44*
X242913Y298228D02*
D03*
X212598Y222047D02*
D03*
X212598Y263779D02*
D03*
Y305512D02*
D03*
D45*
X326693Y315000D02*
D03*
X374095D02*
D03*
D46*
X345472Y304331D02*
D03*
X355315Y296457D02*
D03*
Y304331D02*
D03*
D47*
X345472Y296457D02*
D03*
D48*
X211535Y17126D02*
D03*
X221535D02*
D03*
X201535D02*
D03*
X174292Y49213D02*
D03*
X164292D02*
D03*
X154292D02*
D03*
X355315Y15354D02*
D03*
X337598D02*
D03*
X63976D02*
D03*
X46260D02*
D03*
X126969D02*
D03*
X109252D02*
D03*
D49*
X231535Y17126D02*
D03*
D50*
X184292Y49213D02*
D03*
D51*
X80905Y291339D02*
D03*
X120276D02*
D03*
X110433D02*
D03*
X90748D02*
D03*
X100591D02*
D03*
X48228D02*
D03*
D52*
X130118D02*
D03*
X58071D02*
D03*
D53*
X359842Y25197D02*
D03*
X333071D02*
D03*
X68504D02*
D03*
X41732D02*
D03*
X131496D02*
D03*
X104724D02*
D03*
D54*
X216535Y169291D02*
D03*
X417323Y334646D02*
D03*
X287402D02*
D03*
X145669D02*
D03*
X244094Y208661D02*
D03*
X188976D02*
D03*
X244094Y338583D02*
D03*
X188976D02*
D03*
X15748Y15748D02*
D03*
X417323D02*
D03*
X15748Y334646D02*
D03*
D93*
X164961Y273622D02*
D03*
X268110Y273622D02*
D03*
D94*
X216535Y197244D02*
D03*
M02*
