G04*
G04 #@! TF.GenerationSoftware,Altium Limited,Altium Designer,20.1.12 (249)*
G04*
G04 Layer_Color=20142*
%FSLAX25Y25*%
%MOIN*%
G70*
G04*
G04 #@! TF.SameCoordinates,A01A24DB-8456-4819-8E0F-2EBA4B08BD15*
G04*
G04*
G04 #@! TF.FilePolarity,Negative*
G04*
G01*
G75*
%ADD15R,0.03937X0.21260*%
%ADD16R,0.03937X0.21260*%
%ADD17R,0.21260X0.03937*%
%ADD18R,0.21260X0.03937*%
G04:AMPARAMS|DCode=19|XSize=51.18mil|YSize=23.62mil|CornerRadius=6.89mil|HoleSize=0mil|Usage=FLASHONLY|Rotation=90.000|XOffset=0mil|YOffset=0mil|HoleType=Round|Shape=RoundedRectangle|*
%AMROUNDEDRECTD19*
21,1,0.05118,0.00984,0,0,90.0*
21,1,0.03740,0.02362,0,0,90.0*
1,1,0.01378,0.00492,0.01870*
1,1,0.01378,0.00492,-0.01870*
1,1,0.01378,-0.00492,-0.01870*
1,1,0.01378,-0.00492,0.01870*
%
%ADD19ROUNDEDRECTD19*%
G04:AMPARAMS|DCode=20|XSize=51.18mil|YSize=23.62mil|CornerRadius=6.89mil|HoleSize=0mil|Usage=FLASHONLY|Rotation=180.000|XOffset=0mil|YOffset=0mil|HoleType=Round|Shape=RoundedRectangle|*
%AMROUNDEDRECTD20*
21,1,0.05118,0.00984,0,0,180.0*
21,1,0.03740,0.02362,0,0,180.0*
1,1,0.01378,-0.01870,0.00492*
1,1,0.01378,0.01870,0.00492*
1,1,0.01378,0.01870,-0.00492*
1,1,0.01378,-0.01870,-0.00492*
%
%ADD20ROUNDEDRECTD20*%
G04:AMPARAMS|DCode=21|XSize=39.37mil|YSize=35.43mil|CornerRadius=9.84mil|HoleSize=0mil|Usage=FLASHONLY|Rotation=270.000|XOffset=0mil|YOffset=0mil|HoleType=Round|Shape=RoundedRectangle|*
%AMROUNDEDRECTD21*
21,1,0.03937,0.01575,0,0,270.0*
21,1,0.01968,0.03543,0,0,270.0*
1,1,0.01968,-0.00787,-0.00984*
1,1,0.01968,-0.00787,0.00984*
1,1,0.01968,0.00787,0.00984*
1,1,0.01968,0.00787,-0.00984*
%
%ADD21ROUNDEDRECTD21*%
%ADD22C,0.70394*%
G04:AMPARAMS|DCode=23|XSize=103.94mil|YSize=203.94mil|CornerRadius=26.97mil|HoleSize=0mil|Usage=FLASHONLY|Rotation=180.000|XOffset=0mil|YOffset=0mil|HoleType=Round|Shape=RoundedRectangle|*
%AMROUNDEDRECTD23*
21,1,0.10394,0.15000,0,0,180.0*
21,1,0.05000,0.20394,0,0,180.0*
1,1,0.05394,-0.02500,0.07500*
1,1,0.05394,0.02500,0.07500*
1,1,0.05394,0.02500,-0.07500*
1,1,0.05394,-0.02500,-0.07500*
%
%ADD23ROUNDEDRECTD23*%
%ADD24C,0.07874*%
G04:AMPARAMS|DCode=25|XSize=27.56mil|YSize=43.31mil|CornerRadius=7.87mil|HoleSize=0mil|Usage=FLASHONLY|Rotation=90.000|XOffset=0mil|YOffset=0mil|HoleType=Round|Shape=RoundedRectangle|*
%AMROUNDEDRECTD25*
21,1,0.02756,0.02756,0,0,90.0*
21,1,0.01181,0.04331,0,0,90.0*
1,1,0.01575,0.01378,0.00591*
1,1,0.01575,0.01378,-0.00591*
1,1,0.01575,-0.01378,-0.00591*
1,1,0.01575,-0.01378,0.00591*
%
%ADD25ROUNDEDRECTD25*%
G04:AMPARAMS|DCode=26|XSize=39.37mil|YSize=35.43mil|CornerRadius=9.84mil|HoleSize=0mil|Usage=FLASHONLY|Rotation=0.000|XOffset=0mil|YOffset=0mil|HoleType=Round|Shape=RoundedRectangle|*
%AMROUNDEDRECTD26*
21,1,0.03937,0.01575,0,0,0.0*
21,1,0.01968,0.03543,0,0,0.0*
1,1,0.01968,0.00984,-0.00787*
1,1,0.01968,-0.00984,-0.00787*
1,1,0.01968,-0.00984,0.00787*
1,1,0.01968,0.00984,0.00787*
%
%ADD26ROUNDEDRECTD26*%
G04:AMPARAMS|DCode=27|XSize=43.31mil|YSize=35.43mil|CornerRadius=9.84mil|HoleSize=0mil|Usage=FLASHONLY|Rotation=0.000|XOffset=0mil|YOffset=0mil|HoleType=Round|Shape=RoundedRectangle|*
%AMROUNDEDRECTD27*
21,1,0.04331,0.01575,0,0,0.0*
21,1,0.02362,0.03543,0,0,0.0*
1,1,0.01968,0.01181,-0.00787*
1,1,0.01968,-0.01181,-0.00787*
1,1,0.01968,-0.01181,0.00787*
1,1,0.01968,0.01181,0.00787*
%
%ADD27ROUNDEDRECTD27*%
G04:AMPARAMS|DCode=28|XSize=43.31mil|YSize=35.43mil|CornerRadius=9.84mil|HoleSize=0mil|Usage=FLASHONLY|Rotation=90.000|XOffset=0mil|YOffset=0mil|HoleType=Round|Shape=RoundedRectangle|*
%AMROUNDEDRECTD28*
21,1,0.04331,0.01575,0,0,90.0*
21,1,0.02362,0.03543,0,0,90.0*
1,1,0.01968,0.00787,0.01181*
1,1,0.01968,0.00787,-0.01181*
1,1,0.01968,-0.00787,-0.01181*
1,1,0.01968,-0.00787,0.01181*
%
%ADD28ROUNDEDRECTD28*%
G04:AMPARAMS|DCode=29|XSize=35.43mil|YSize=31.5mil|CornerRadius=8.86mil|HoleSize=0mil|Usage=FLASHONLY|Rotation=0.000|XOffset=0mil|YOffset=0mil|HoleType=Round|Shape=RoundedRectangle|*
%AMROUNDEDRECTD29*
21,1,0.03543,0.01378,0,0,0.0*
21,1,0.01772,0.03150,0,0,0.0*
1,1,0.01772,0.00886,-0.00689*
1,1,0.01772,-0.00886,-0.00689*
1,1,0.01772,-0.00886,0.00689*
1,1,0.01772,0.00886,0.00689*
%
%ADD29ROUNDEDRECTD29*%
G04:AMPARAMS|DCode=30|XSize=122.05mil|YSize=62.99mil|CornerRadius=16.73mil|HoleSize=0mil|Usage=FLASHONLY|Rotation=180.000|XOffset=0mil|YOffset=0mil|HoleType=Round|Shape=RoundedRectangle|*
%AMROUNDEDRECTD30*
21,1,0.12205,0.02953,0,0,180.0*
21,1,0.08858,0.06299,0,0,180.0*
1,1,0.03347,-0.04429,0.01476*
1,1,0.03347,0.04429,0.01476*
1,1,0.03347,0.04429,-0.01476*
1,1,0.03347,-0.04429,-0.01476*
%
%ADD30ROUNDEDRECTD30*%
G04:AMPARAMS|DCode=31|XSize=35.43mil|YSize=39.37mil|CornerRadius=9.84mil|HoleSize=0mil|Usage=FLASHONLY|Rotation=270.000|XOffset=0mil|YOffset=0mil|HoleType=Round|Shape=RoundedRectangle|*
%AMROUNDEDRECTD31*
21,1,0.03543,0.01968,0,0,270.0*
21,1,0.01575,0.03937,0,0,270.0*
1,1,0.01968,-0.00984,-0.00787*
1,1,0.01968,-0.00984,0.00787*
1,1,0.01968,0.00984,0.00787*
1,1,0.01968,0.00984,-0.00787*
%
%ADD31ROUNDEDRECTD31*%
G04:AMPARAMS|DCode=32|XSize=27.56mil|YSize=62.99mil|CornerRadius=7.87mil|HoleSize=0mil|Usage=FLASHONLY|Rotation=180.000|XOffset=0mil|YOffset=0mil|HoleType=Round|Shape=RoundedRectangle|*
%AMROUNDEDRECTD32*
21,1,0.02756,0.04724,0,0,180.0*
21,1,0.01181,0.06299,0,0,180.0*
1,1,0.01575,-0.00591,0.02362*
1,1,0.01575,0.00591,0.02362*
1,1,0.01575,0.00591,-0.02362*
1,1,0.01575,-0.00591,-0.02362*
%
%ADD32ROUNDEDRECTD32*%
%ADD33R,0.12205X0.09449*%
G04:AMPARAMS|DCode=34|XSize=114.17mil|YSize=43.31mil|CornerRadius=11.81mil|HoleSize=0mil|Usage=FLASHONLY|Rotation=180.000|XOffset=0mil|YOffset=0mil|HoleType=Round|Shape=RoundedRectangle|*
%AMROUNDEDRECTD34*
21,1,0.11417,0.01968,0,0,180.0*
21,1,0.09055,0.04331,0,0,180.0*
1,1,0.02362,-0.04528,0.00984*
1,1,0.02362,0.04528,0.00984*
1,1,0.02362,0.04528,-0.00984*
1,1,0.02362,-0.04528,-0.00984*
%
%ADD34ROUNDEDRECTD34*%
G04:AMPARAMS|DCode=35|XSize=27.56mil|YSize=43.31mil|CornerRadius=7.87mil|HoleSize=0mil|Usage=FLASHONLY|Rotation=0.000|XOffset=0mil|YOffset=0mil|HoleType=Round|Shape=RoundedRectangle|*
%AMROUNDEDRECTD35*
21,1,0.02756,0.02756,0,0,0.0*
21,1,0.01181,0.04331,0,0,0.0*
1,1,0.01575,0.00591,-0.01378*
1,1,0.01575,-0.00591,-0.01378*
1,1,0.01575,-0.00591,0.01378*
1,1,0.01575,0.00591,0.01378*
%
%ADD35ROUNDEDRECTD35*%
G04:AMPARAMS|DCode=36|XSize=35.43mil|YSize=39.37mil|CornerRadius=9.84mil|HoleSize=0mil|Usage=FLASHONLY|Rotation=180.000|XOffset=0mil|YOffset=0mil|HoleType=Round|Shape=RoundedRectangle|*
%AMROUNDEDRECTD36*
21,1,0.03543,0.01968,0,0,180.0*
21,1,0.01575,0.03937,0,0,180.0*
1,1,0.01968,-0.00787,0.00984*
1,1,0.01968,0.00787,0.00984*
1,1,0.01968,0.00787,-0.00984*
1,1,0.01968,-0.00787,-0.00984*
%
%ADD36ROUNDEDRECTD36*%
G04:AMPARAMS|DCode=37|XSize=33.47mil|YSize=59.06mil|CornerRadius=9.35mil|HoleSize=0mil|Usage=FLASHONLY|Rotation=90.000|XOffset=0mil|YOffset=0mil|HoleType=Round|Shape=RoundedRectangle|*
%AMROUNDEDRECTD37*
21,1,0.03347,0.04035,0,0,90.0*
21,1,0.01476,0.05906,0,0,90.0*
1,1,0.01870,0.02018,0.00738*
1,1,0.01870,0.02018,-0.00738*
1,1,0.01870,-0.02018,-0.00738*
1,1,0.01870,-0.02018,0.00738*
%
%ADD37ROUNDEDRECTD37*%
G04:AMPARAMS|DCode=38|XSize=55.12mil|YSize=43.31mil|CornerRadius=11.81mil|HoleSize=0mil|Usage=FLASHONLY|Rotation=270.000|XOffset=0mil|YOffset=0mil|HoleType=Round|Shape=RoundedRectangle|*
%AMROUNDEDRECTD38*
21,1,0.05512,0.01968,0,0,270.0*
21,1,0.03150,0.04331,0,0,270.0*
1,1,0.02362,-0.00984,-0.01575*
1,1,0.02362,-0.00984,0.01575*
1,1,0.02362,0.00984,0.01575*
1,1,0.02362,0.00984,-0.01575*
%
%ADD38ROUNDEDRECTD38*%
G04:AMPARAMS|DCode=39|XSize=66.93mil|YSize=141.73mil|CornerRadius=17.72mil|HoleSize=0mil|Usage=FLASHONLY|Rotation=270.000|XOffset=0mil|YOffset=0mil|HoleType=Round|Shape=RoundedRectangle|*
%AMROUNDEDRECTD39*
21,1,0.06693,0.10630,0,0,270.0*
21,1,0.03150,0.14173,0,0,270.0*
1,1,0.03543,-0.05315,-0.01575*
1,1,0.03543,-0.05315,0.01575*
1,1,0.03543,0.05315,0.01575*
1,1,0.03543,0.05315,-0.01575*
%
%ADD39ROUNDEDRECTD39*%
G04:AMPARAMS|DCode=40|XSize=86.61mil|YSize=161.42mil|CornerRadius=22.64mil|HoleSize=0mil|Usage=FLASHONLY|Rotation=270.000|XOffset=0mil|YOffset=0mil|HoleType=Round|Shape=RoundedRectangle|*
%AMROUNDEDRECTD40*
21,1,0.08661,0.11614,0,0,270.0*
21,1,0.04134,0.16142,0,0,270.0*
1,1,0.04528,-0.05807,-0.02067*
1,1,0.04528,-0.05807,0.02067*
1,1,0.04528,0.05807,0.02067*
1,1,0.04528,0.05807,-0.02067*
%
%ADD40ROUNDEDRECTD40*%
G04:AMPARAMS|DCode=41|XSize=70.87mil|YSize=74.8mil|CornerRadius=18.7mil|HoleSize=0mil|Usage=FLASHONLY|Rotation=90.000|XOffset=0mil|YOffset=0mil|HoleType=Round|Shape=RoundedRectangle|*
%AMROUNDEDRECTD41*
21,1,0.07087,0.03740,0,0,90.0*
21,1,0.03347,0.07480,0,0,90.0*
1,1,0.03740,0.01870,0.01673*
1,1,0.03740,0.01870,-0.01673*
1,1,0.03740,-0.01870,-0.01673*
1,1,0.03740,-0.01870,0.01673*
%
%ADD41ROUNDEDRECTD41*%
%ADD42C,0.03937*%
%ADD43O,0.08268X0.06693*%
G04:AMPARAMS|DCode=44|XSize=66.93mil|YSize=82.68mil|CornerRadius=17.72mil|HoleSize=0mil|Usage=FLASHONLY|Rotation=270.000|XOffset=0mil|YOffset=0mil|HoleType=Round|Shape=RoundedRectangle|*
%AMROUNDEDRECTD44*
21,1,0.06693,0.04724,0,0,270.0*
21,1,0.03150,0.08268,0,0,270.0*
1,1,0.03543,-0.02362,-0.01575*
1,1,0.03543,-0.02362,0.01575*
1,1,0.03543,0.02362,0.01575*
1,1,0.03543,0.02362,-0.01575*
%
%ADD44ROUNDEDRECTD44*%
%ADD45C,0.14567*%
%ADD46C,0.06299*%
G04:AMPARAMS|DCode=47|XSize=62.99mil|YSize=62.99mil|CornerRadius=16.73mil|HoleSize=0mil|Usage=FLASHONLY|Rotation=180.000|XOffset=0mil|YOffset=0mil|HoleType=Round|Shape=RoundedRectangle|*
%AMROUNDEDRECTD47*
21,1,0.06299,0.02953,0,0,180.0*
21,1,0.02953,0.06299,0,0,180.0*
1,1,0.03347,-0.01476,0.01476*
1,1,0.03347,0.01476,0.01476*
1,1,0.03347,0.01476,-0.01476*
1,1,0.03347,-0.01476,-0.01476*
%
%ADD47ROUNDEDRECTD47*%
%ADD48C,0.06693*%
G04:AMPARAMS|DCode=49|XSize=66.93mil|YSize=66.93mil|CornerRadius=17.72mil|HoleSize=0mil|Usage=FLASHONLY|Rotation=180.000|XOffset=0mil|YOffset=0mil|HoleType=Round|Shape=RoundedRectangle|*
%AMROUNDEDRECTD49*
21,1,0.06693,0.03150,0,0,180.0*
21,1,0.03150,0.06693,0,0,180.0*
1,1,0.03543,-0.01575,0.01575*
1,1,0.03543,0.01575,0.01575*
1,1,0.03543,0.01575,-0.01575*
1,1,0.03543,-0.01575,-0.01575*
%
%ADD49ROUNDEDRECTD49*%
G04:AMPARAMS|DCode=50|XSize=66.93mil|YSize=66.93mil|CornerRadius=17.72mil|HoleSize=0mil|Usage=FLASHONLY|Rotation=270.000|XOffset=0mil|YOffset=0mil|HoleType=Round|Shape=RoundedRectangle|*
%AMROUNDEDRECTD50*
21,1,0.06693,0.03150,0,0,270.0*
21,1,0.03150,0.06693,0,0,270.0*
1,1,0.03543,-0.01575,-0.01575*
1,1,0.03543,-0.01575,0.01575*
1,1,0.03543,0.01575,0.01575*
1,1,0.03543,0.01575,-0.01575*
%
%ADD50ROUNDEDRECTD50*%
%ADD51O,0.06693X0.08268*%
G04:AMPARAMS|DCode=52|XSize=66.93mil|YSize=82.68mil|CornerRadius=17.72mil|HoleSize=0mil|Usage=FLASHONLY|Rotation=180.000|XOffset=0mil|YOffset=0mil|HoleType=Round|Shape=RoundedRectangle|*
%AMROUNDEDRECTD52*
21,1,0.06693,0.04724,0,0,180.0*
21,1,0.03150,0.08268,0,0,180.0*
1,1,0.03543,-0.01575,0.02362*
1,1,0.03543,0.01575,0.02362*
1,1,0.03543,0.01575,-0.02362*
1,1,0.03543,-0.01575,-0.02362*
%
%ADD52ROUNDEDRECTD52*%
G04:AMPARAMS|DCode=53|XSize=74.8mil|YSize=90.55mil|CornerRadius=19.68mil|HoleSize=0mil|Usage=FLASHONLY|Rotation=180.000|XOffset=0mil|YOffset=0mil|HoleType=Round|Shape=RoundedRectangle|*
%AMROUNDEDRECTD53*
21,1,0.07480,0.05118,0,0,180.0*
21,1,0.03543,0.09055,0,0,180.0*
1,1,0.03937,-0.01772,0.02559*
1,1,0.03937,0.01772,0.02559*
1,1,0.03937,0.01772,-0.02559*
1,1,0.03937,-0.01772,-0.02559*
%
%ADD53ROUNDEDRECTD53*%
%ADD54C,0.19685*%
%ADD55C,0.02362*%
G36*
X92342Y183660D02*
X92361Y183659D01*
X92390Y183650D01*
X92399Y183647D01*
X92433Y183629D01*
X92463Y183604D01*
X92487Y183574D01*
X92506Y183540D01*
X92508Y183532D01*
X92517Y183503D01*
X92519Y183484D01*
X92521Y183465D01*
X92519Y183445D01*
X92517Y183426D01*
X92508Y183397D01*
X92506Y183389D01*
X92487Y183355D01*
X92463Y183325D01*
X91733Y182595D01*
X91733Y177362D01*
X91729Y177323D01*
X91718Y177286D01*
X91700Y177252D01*
X91675Y177222D01*
X91645Y177198D01*
X91611Y177179D01*
X91574Y177168D01*
X91535Y177164D01*
X85630Y177164D01*
X85591Y177168D01*
X85554Y177180D01*
X85520Y177198D01*
X85490Y177222D01*
X85466Y177252D01*
X85447Y177287D01*
X85436Y177324D01*
X85432Y177362D01*
X85432Y182595D01*
X84703Y183325D01*
X84703Y183325D01*
X84678Y183355D01*
X84660Y183389D01*
X84657Y183397D01*
X84649Y183426D01*
X84645Y183465D01*
X84649Y183503D01*
X84660Y183540D01*
X84678Y183574D01*
X84703Y183604D01*
X84733Y183629D01*
X84767Y183647D01*
X84804Y183659D01*
X84842Y183662D01*
X92323D01*
X92323Y183662D01*
X92342Y183660D01*
D02*
G37*
G36*
X91536Y207087D02*
X91574Y207084D01*
X91611Y207072D01*
X91645Y207054D01*
X91675Y207030D01*
X91700Y207000D01*
X91718Y206965D01*
X91729Y206928D01*
X91733Y206890D01*
X91733Y201657D01*
X92463Y200927D01*
X92463Y200927D01*
X92487Y200897D01*
X92506Y200863D01*
X92508Y200854D01*
X92517Y200826D01*
X92521Y200787D01*
X92517Y200749D01*
X92506Y200712D01*
X92487Y200677D01*
X92463Y200647D01*
X92433Y200623D01*
X92399Y200605D01*
X92361Y200593D01*
X92323Y200590D01*
X84843D01*
X84842Y200590D01*
X84823Y200591D01*
X84804Y200593D01*
X84776Y200602D01*
X84767Y200605D01*
X84733Y200623D01*
X84703Y200647D01*
X84678Y200677D01*
X84660Y200712D01*
X84657Y200720D01*
X84649Y200749D01*
X84647Y200768D01*
X84645Y200787D01*
X84647Y200807D01*
X84649Y200826D01*
X84657Y200854D01*
X84660Y200863D01*
X84678Y200897D01*
X84703Y200927D01*
X85432Y201657D01*
X85432Y206890D01*
X85436Y206928D01*
X85447Y206965D01*
X85466Y207000D01*
X85490Y207030D01*
X85520Y207054D01*
X85554Y207073D01*
X85591Y207084D01*
X85630Y207088D01*
X91536Y207087D01*
D02*
G37*
D15*
X177559Y273622D02*
D03*
X255512Y273622D02*
D03*
D16*
X164961Y273622D02*
D03*
X268110Y273622D02*
D03*
D17*
X216535Y197244D02*
D03*
D18*
X216535Y184646D02*
D03*
D19*
X208662Y91142D02*
D03*
X224410D02*
D03*
X208662Y57678D02*
D03*
X224410D02*
D03*
X205512Y91142D02*
D03*
X214961D02*
D03*
X211811D02*
D03*
X221260D02*
D03*
X218111D02*
D03*
X227559D02*
D03*
X205512Y57678D02*
D03*
X211811D02*
D03*
X214961D02*
D03*
X218111D02*
D03*
X221260D02*
D03*
X227559D02*
D03*
D20*
X199803Y82284D02*
D03*
X233268D02*
D03*
X199803Y66536D02*
D03*
X233268D02*
D03*
X199803Y85433D02*
D03*
X233268D02*
D03*
X199803Y79134D02*
D03*
Y75985D02*
D03*
X233268D02*
D03*
Y79134D02*
D03*
X199803Y72835D02*
D03*
Y69685D02*
D03*
X233268D02*
D03*
Y72835D02*
D03*
X199803Y63386D02*
D03*
X233268D02*
D03*
D21*
X300787Y264567D02*
D03*
X294488D02*
D03*
X305512Y299213D02*
D03*
X299213D02*
D03*
D22*
X376378Y107874D02*
D03*
D23*
X421260D02*
D03*
X331496D02*
D03*
D24*
X417323Y47244D02*
D03*
X15748D02*
D03*
X47244Y334646D02*
D03*
D25*
X226969Y113976D02*
D03*
Y110236D02*
D03*
Y106496D02*
D03*
X237598D02*
D03*
Y113976D02*
D03*
D26*
X50394Y194882D02*
D03*
Y188583D02*
D03*
X57480Y194882D02*
D03*
Y188583D02*
D03*
Y210236D02*
D03*
Y203937D02*
D03*
X68504Y59842D02*
D03*
Y53543D02*
D03*
X62205D02*
D03*
Y59842D02*
D03*
X40157Y60236D02*
D03*
Y53937D02*
D03*
X261417Y113386D02*
D03*
Y107087D02*
D03*
X242913Y90945D02*
D03*
Y97244D02*
D03*
X255906Y113386D02*
D03*
Y107087D02*
D03*
X40157Y84646D02*
D03*
Y90945D02*
D03*
X46457Y84646D02*
D03*
Y90945D02*
D03*
X93701Y84646D02*
D03*
Y90945D02*
D03*
X87402Y84646D02*
D03*
Y90945D02*
D03*
X138976Y84646D02*
D03*
Y90945D02*
D03*
X132677Y84646D02*
D03*
Y90945D02*
D03*
X316929Y270079D02*
D03*
Y276378D02*
D03*
D27*
X50394Y203937D02*
D03*
Y210236D02*
D03*
X250000Y107480D02*
D03*
Y113779D02*
D03*
X243701Y107480D02*
D03*
Y113779D02*
D03*
X220866Y107087D02*
D03*
Y113386D02*
D03*
X214567Y107087D02*
D03*
Y113386D02*
D03*
X262992Y96063D02*
D03*
Y89764D02*
D03*
X243307Y81890D02*
D03*
Y75590D02*
D03*
X249606Y81890D02*
D03*
Y75590D02*
D03*
X311024Y276378D02*
D03*
Y270079D02*
D03*
D28*
X73228Y172047D02*
D03*
X79527D02*
D03*
X73228Y165748D02*
D03*
X79527D02*
D03*
Y178347D02*
D03*
X73228D02*
D03*
X229134Y100000D02*
D03*
X235433D02*
D03*
X257087Y68898D02*
D03*
X250787D02*
D03*
X257087Y62598D02*
D03*
X250787D02*
D03*
X299213Y293307D02*
D03*
X305512D02*
D03*
X299213Y287008D02*
D03*
X305512D02*
D03*
D29*
X77559Y211417D02*
D03*
Y202756D02*
D03*
D30*
X88583Y186221D02*
D03*
Y198031D02*
D03*
D31*
X46850Y56890D02*
D03*
X55512Y60630D02*
D03*
Y53150D02*
D03*
D32*
X42146Y209981D02*
D03*
X37146D02*
D03*
X32146D02*
D03*
X27146D02*
D03*
X42146Y188721D02*
D03*
X37146D02*
D03*
X32146D02*
D03*
X27146D02*
D03*
D33*
X34646Y199350D02*
D03*
D34*
X66929Y201181D02*
D03*
Y212992D02*
D03*
D35*
X77362Y195276D02*
D03*
X73622D02*
D03*
X69882D02*
D03*
Y184646D02*
D03*
X77362D02*
D03*
X300787Y270276D02*
D03*
X304528D02*
D03*
X297047D02*
D03*
Y280906D02*
D03*
X300787D02*
D03*
X304528D02*
D03*
D36*
X249016Y89764D02*
D03*
X256496D02*
D03*
X252756Y98425D02*
D03*
X259843Y75591D02*
D03*
X256102Y84252D02*
D03*
X263583D02*
D03*
X57086Y92126D02*
D03*
X60827Y83464D02*
D03*
X53346D02*
D03*
X104331Y83465D02*
D03*
X100591Y92126D02*
D03*
X108071D02*
D03*
X149606Y83465D02*
D03*
X145866Y92126D02*
D03*
X153347D02*
D03*
D37*
X244094Y62894D02*
D03*
Y68602D02*
D03*
D38*
X46851Y99606D02*
D03*
X39764D02*
D03*
X94095Y99606D02*
D03*
X87008D02*
D03*
X139370Y99606D02*
D03*
X132284D02*
D03*
D39*
X48425Y238976D02*
D03*
X70472D02*
D03*
D40*
X110236D02*
D03*
X137795D02*
D03*
D41*
X60630Y263779D02*
D03*
X45669D02*
D03*
D42*
X164961Y284252D02*
D03*
X177559Y284252D02*
D03*
Y280709D02*
D03*
Y266535D02*
D03*
Y273622D02*
D03*
Y262992D02*
D03*
Y270079D02*
D03*
Y277165D02*
D03*
X164961Y280709D02*
D03*
Y266535D02*
D03*
Y273622D02*
D03*
Y262992D02*
D03*
Y270079D02*
D03*
Y277165D02*
D03*
X220079Y197244D02*
D03*
X212992D02*
D03*
X205906D02*
D03*
X216535D02*
D03*
X209449D02*
D03*
X223622D02*
D03*
X220079Y184646D02*
D03*
X212992D02*
D03*
X205906D02*
D03*
X216535D02*
D03*
X209449D02*
D03*
X223622D02*
D03*
X227165D02*
D03*
X227165Y197244D02*
D03*
X268110Y270079D02*
D03*
Y277165D02*
D03*
Y284252D02*
D03*
Y273622D02*
D03*
Y280709D02*
D03*
Y266535D02*
D03*
X255512Y270079D02*
D03*
Y277165D02*
D03*
Y284252D02*
D03*
Y273622D02*
D03*
Y280709D02*
D03*
Y266535D02*
D03*
Y262992D02*
D03*
X268110Y262992D02*
D03*
D43*
X242913Y268701D02*
D03*
Y258858D02*
D03*
Y278543D02*
D03*
Y288386D02*
D03*
Y249016D02*
D03*
X212598Y231890D02*
D03*
Y241732D02*
D03*
X212598Y273622D02*
D03*
Y283465D02*
D03*
Y325197D02*
D03*
Y315354D02*
D03*
D44*
X242913Y298228D02*
D03*
X212598Y222047D02*
D03*
X212598Y263779D02*
D03*
Y305512D02*
D03*
D45*
X326693Y315000D02*
D03*
X374095D02*
D03*
D46*
X345472Y304331D02*
D03*
X355315Y296457D02*
D03*
Y304331D02*
D03*
D47*
X345472Y296457D02*
D03*
D48*
X211535Y17126D02*
D03*
X221535D02*
D03*
X201535D02*
D03*
X174292Y49213D02*
D03*
X164292D02*
D03*
X154292D02*
D03*
X355315Y15354D02*
D03*
X337598D02*
D03*
X63976D02*
D03*
X46260D02*
D03*
X126969D02*
D03*
X109252D02*
D03*
D49*
X231535Y17126D02*
D03*
D50*
X184292Y49213D02*
D03*
D51*
X80905Y291339D02*
D03*
X120276D02*
D03*
X110433D02*
D03*
X90748D02*
D03*
X100591D02*
D03*
X48228D02*
D03*
D52*
X130118D02*
D03*
X58071D02*
D03*
D53*
X359842Y25197D02*
D03*
X333071D02*
D03*
X68504D02*
D03*
X41732D02*
D03*
X131496D02*
D03*
X104724D02*
D03*
D54*
X216535Y169291D02*
D03*
X417323Y334646D02*
D03*
X287402D02*
D03*
X145669D02*
D03*
X244094Y208661D02*
D03*
X188976D02*
D03*
X244094Y338583D02*
D03*
X188976D02*
D03*
X15748Y15748D02*
D03*
X417323D02*
D03*
X15748Y334646D02*
D03*
D55*
X29921Y196792D02*
D03*
X39370Y201910D02*
D03*
X29921D02*
D03*
X39370Y196792D02*
D03*
X34645D02*
D03*
Y201910D02*
D03*
M02*
