G04*
G04 #@! TF.GenerationSoftware,Altium Limited,Altium Designer,20.1.12 (249)*
G04*
G04 Layer_Physical_Order=2*
G04 Layer_Color=11436288*
%FSLAX25Y25*%
%MOIN*%
G70*
G04*
G04 #@! TF.SameCoordinates,A01A24DB-8456-4819-8E0F-2EBA4B08BD15*
G04*
G04*
G04 #@! TF.FilePolarity,Positive*
G04*
G01*
G75*
%ADD10C,0.00787*%
%ADD11C,0.01181*%
%ADD46C,0.06299*%
%ADD55C,0.02362*%
%ADD78C,0.05512*%
%ADD79C,0.02362*%
%ADD80C,0.01575*%
%ADD82O,0.07874X0.06299*%
G04:AMPARAMS|DCode=83|XSize=62.99mil|YSize=78.74mil|CornerRadius=15.75mil|HoleSize=0mil|Usage=FLASHONLY|Rotation=270.000|XOffset=0mil|YOffset=0mil|HoleType=Round|Shape=RoundedRectangle|*
%AMROUNDEDRECTD83*
21,1,0.06299,0.04724,0,0,270.0*
21,1,0.03150,0.07874,0,0,270.0*
1,1,0.03150,-0.02362,-0.01575*
1,1,0.03150,-0.02362,0.01575*
1,1,0.03150,0.02362,0.01575*
1,1,0.03150,0.02362,-0.01575*
%
%ADD83ROUNDEDRECTD83*%
%ADD84C,0.14173*%
%ADD85C,0.05906*%
G04:AMPARAMS|DCode=86|XSize=59.06mil|YSize=59.06mil|CornerRadius=14.76mil|HoleSize=0mil|Usage=FLASHONLY|Rotation=180.000|XOffset=0mil|YOffset=0mil|HoleType=Round|Shape=RoundedRectangle|*
%AMROUNDEDRECTD86*
21,1,0.05906,0.02953,0,0,180.0*
21,1,0.02953,0.05906,0,0,180.0*
1,1,0.02953,-0.01476,0.01476*
1,1,0.02953,0.01476,0.01476*
1,1,0.02953,0.01476,-0.01476*
1,1,0.02953,-0.01476,-0.01476*
%
%ADD86ROUNDEDRECTD86*%
G04:AMPARAMS|DCode=87|XSize=62.99mil|YSize=62.99mil|CornerRadius=15.75mil|HoleSize=0mil|Usage=FLASHONLY|Rotation=180.000|XOffset=0mil|YOffset=0mil|HoleType=Round|Shape=RoundedRectangle|*
%AMROUNDEDRECTD87*
21,1,0.06299,0.03150,0,0,180.0*
21,1,0.03150,0.06299,0,0,180.0*
1,1,0.03150,-0.01575,0.01575*
1,1,0.03150,0.01575,0.01575*
1,1,0.03150,0.01575,-0.01575*
1,1,0.03150,-0.01575,-0.01575*
%
%ADD87ROUNDEDRECTD87*%
G04:AMPARAMS|DCode=88|XSize=62.99mil|YSize=62.99mil|CornerRadius=15.75mil|HoleSize=0mil|Usage=FLASHONLY|Rotation=270.000|XOffset=0mil|YOffset=0mil|HoleType=Round|Shape=RoundedRectangle|*
%AMROUNDEDRECTD88*
21,1,0.06299,0.03150,0,0,270.0*
21,1,0.03150,0.06299,0,0,270.0*
1,1,0.03150,-0.01575,-0.01575*
1,1,0.03150,-0.01575,0.01575*
1,1,0.03150,0.01575,0.01575*
1,1,0.03150,0.01575,-0.01575*
%
%ADD88ROUNDEDRECTD88*%
%ADD89O,0.06299X0.07874*%
G04:AMPARAMS|DCode=90|XSize=62.99mil|YSize=78.74mil|CornerRadius=15.75mil|HoleSize=0mil|Usage=FLASHONLY|Rotation=180.000|XOffset=0mil|YOffset=0mil|HoleType=Round|Shape=RoundedRectangle|*
%AMROUNDEDRECTD90*
21,1,0.06299,0.04724,0,0,180.0*
21,1,0.03150,0.07874,0,0,180.0*
1,1,0.03150,-0.01575,0.02362*
1,1,0.03150,0.01575,0.02362*
1,1,0.03150,0.01575,-0.02362*
1,1,0.03150,-0.01575,-0.02362*
%
%ADD90ROUNDEDRECTD90*%
G04:AMPARAMS|DCode=91|XSize=70.87mil|YSize=86.61mil|CornerRadius=17.72mil|HoleSize=0mil|Usage=FLASHONLY|Rotation=180.000|XOffset=0mil|YOffset=0mil|HoleType=Round|Shape=RoundedRectangle|*
%AMROUNDEDRECTD91*
21,1,0.07087,0.05118,0,0,180.0*
21,1,0.03543,0.08661,0,0,180.0*
1,1,0.03543,-0.01772,0.02559*
1,1,0.03543,0.01772,0.02559*
1,1,0.03543,0.01772,-0.02559*
1,1,0.03543,-0.01772,-0.02559*
%
%ADD91ROUNDEDRECTD91*%
%ADD92C,0.04724*%
G36*
X394685Y348387D02*
X394694Y348271D01*
X394730Y348120D01*
X394790Y347977D01*
X394871Y347845D01*
X394971Y347727D01*
X400588Y342111D01*
Y334672D01*
X400587Y334646D01*
X400601Y333954D01*
X400644Y333264D01*
X400715Y332576D01*
X400815Y331891D01*
X400943Y331211D01*
X401099Y330537D01*
X401283Y329870D01*
X401494Y329211D01*
X401732Y328562D01*
X401997Y327923D01*
X402287Y327295D01*
X402604Y326680D01*
X402946Y326079D01*
X403312Y325492D01*
X403702Y324921D01*
X404116Y324366D01*
X404552Y323829D01*
X405010Y323311D01*
X405489Y322812D01*
X405988Y322333D01*
X406506Y321875D01*
X407043Y321439D01*
X407598Y321025D01*
X408169Y320635D01*
X408756Y320269D01*
X409357Y319927D01*
X409972Y319610D01*
X410600Y319319D01*
X411239Y319055D01*
X411889Y318817D01*
X412547Y318605D01*
X413214Y318422D01*
X413888Y318266D01*
X414568Y318138D01*
X415253Y318038D01*
X415941Y317967D01*
X416631Y317924D01*
X417323Y317910D01*
X417348Y317910D01*
X424788D01*
X430404Y312294D01*
X430522Y312193D01*
X430654Y312112D01*
X430797Y312053D01*
X430948Y312017D01*
X431064Y312008D01*
Y38386D01*
X430948Y38377D01*
X430797Y38340D01*
X430654Y38281D01*
X430522Y38200D01*
X430404Y38100D01*
X424788Y32483D01*
X417349D01*
X417323Y32484D01*
X416631Y32470D01*
X415941Y32427D01*
X415253Y32355D01*
X414568Y32256D01*
X413888Y32128D01*
X413214Y31972D01*
X412547Y31788D01*
X411889Y31577D01*
X411239Y31339D01*
X410600Y31074D01*
X409972Y30783D01*
X409357Y30467D01*
X408756Y30125D01*
X408169Y29759D01*
X407598Y29368D01*
X407043Y28955D01*
X406506Y28519D01*
X405988Y28061D01*
X405489Y27582D01*
X405010Y27083D01*
X404552Y26564D01*
X404116Y26027D01*
X403702Y25473D01*
X403312Y24902D01*
X402946Y24315D01*
X402604Y23713D01*
X402287Y23098D01*
X401997Y22471D01*
X401732Y21832D01*
X401494Y21182D01*
X401283Y20523D01*
X401099Y19856D01*
X400943Y19183D01*
X400815Y18503D01*
X400715Y17818D01*
X400644Y17130D01*
X400601Y16440D01*
X400587Y15748D01*
X400588Y15722D01*
Y8283D01*
X394971Y2667D01*
X394870Y2549D01*
X394790Y2417D01*
X394730Y2273D01*
X394694Y2123D01*
X394685Y2007D01*
X290954D01*
X290192Y2107D01*
X289449Y2306D01*
X288738Y2601D01*
X288072Y2985D01*
X287462Y3453D01*
X286918Y3997D01*
X286450Y4608D01*
X286258Y4941D01*
X286236Y4966D01*
X286224Y4997D01*
X285952Y5434D01*
X285884Y5507D01*
X285840Y5596D01*
X285213Y6414D01*
X285113Y6501D01*
X285039Y6611D01*
X284311Y7339D01*
X284201Y7413D01*
X284114Y7512D01*
X283297Y8139D01*
X283178Y8198D01*
X283078Y8285D01*
X282187Y8800D01*
X282061Y8843D01*
X281951Y8916D01*
X280999Y9310D01*
X280870Y9336D01*
X280751Y9395D01*
X279756Y9661D01*
X279624Y9670D01*
X279499Y9713D01*
X278477Y9847D01*
X278378Y9841D01*
X278281Y9863D01*
X277766Y9880D01*
X277733Y9875D01*
X277700Y9881D01*
X155370D01*
X155338Y9875D01*
X155305Y9880D01*
X154790Y9863D01*
X154693Y9841D01*
X154594Y9847D01*
X153572Y9713D01*
X153447Y9670D01*
X153315Y9661D01*
X152320Y9395D01*
X152201Y9336D01*
X152071Y9310D01*
X151120Y8916D01*
X151010Y8843D01*
X150884Y8800D01*
X149992Y8285D01*
X149893Y8198D01*
X149774Y8139D01*
X148957Y7512D01*
X148870Y7413D01*
X148760Y7339D01*
X148031Y6611D01*
X147958Y6501D01*
X147858Y6414D01*
X147231Y5596D01*
X147187Y5507D01*
X147119Y5434D01*
X146847Y4997D01*
X146835Y4966D01*
X146813Y4941D01*
X146621Y4608D01*
X146153Y3997D01*
X145609Y3453D01*
X144999Y2985D01*
X144333Y2601D01*
X143622Y2306D01*
X142879Y2107D01*
X142117Y2007D01*
X38386D01*
X38377Y2123D01*
X38340Y2274D01*
X38281Y2417D01*
X38200Y2549D01*
X38100Y2667D01*
X32483Y8283D01*
Y15721D01*
X32484Y15748D01*
X32469Y16440D01*
X32427Y17130D01*
X32355Y17818D01*
X32256Y18503D01*
X32128Y19183D01*
X31972Y19856D01*
X31788Y20523D01*
X31577Y21182D01*
X31339Y21832D01*
X31074Y22471D01*
X30783Y23098D01*
X30467Y23713D01*
X30125Y24315D01*
X29759Y24902D01*
X29368Y25473D01*
X28955Y26027D01*
X28519Y26564D01*
X28061Y27083D01*
X27582Y27582D01*
X27083Y28061D01*
X26564Y28519D01*
X26027Y28955D01*
X25473Y29368D01*
X24902Y29759D01*
X24315Y30125D01*
X23713Y30467D01*
X23098Y30783D01*
X22471Y31074D01*
X21832Y31339D01*
X21182Y31577D01*
X20523Y31788D01*
X19856Y31972D01*
X19183Y32128D01*
X18503Y32256D01*
X17818Y32355D01*
X17130Y32427D01*
X16440Y32470D01*
X15748Y32484D01*
X15722Y32483D01*
X8283D01*
X2667Y38100D01*
X2549Y38200D01*
X2417Y38281D01*
X2273Y38341D01*
X2123Y38377D01*
X2007Y38386D01*
Y286417D01*
X2123Y286426D01*
X2274Y286463D01*
X2417Y286522D01*
X2549Y286603D01*
X2667Y286703D01*
X2767Y286821D01*
X2848Y286953D01*
X2908Y287097D01*
X2944Y287247D01*
X2956Y287402D01*
X2944Y287556D01*
X2908Y287707D01*
X2848Y287850D01*
X2767Y287982D01*
X2667Y288100D01*
X2549Y288200D01*
X2417Y288281D01*
X2274Y288340D01*
X2123Y288377D01*
X2007Y288386D01*
Y312008D01*
X2123Y312017D01*
X2274Y312053D01*
X2417Y312112D01*
X2549Y312193D01*
X2667Y312294D01*
X8283Y317910D01*
X15721D01*
X15748Y317910D01*
X16440Y317924D01*
X17130Y317967D01*
X17818Y318038D01*
X18503Y318138D01*
X19183Y318266D01*
X19856Y318422D01*
X20523Y318605D01*
X21182Y318817D01*
X21832Y319055D01*
X22471Y319319D01*
X23098Y319610D01*
X23713Y319927D01*
X24315Y320269D01*
X24902Y320635D01*
X25473Y321025D01*
X26027Y321439D01*
X26564Y321875D01*
X27083Y322333D01*
X27582Y322812D01*
X28061Y323311D01*
X28519Y323829D01*
X28955Y324366D01*
X29368Y324921D01*
X29759Y325492D01*
X30125Y326079D01*
X30467Y326680D01*
X30783Y327295D01*
X31074Y327923D01*
X31339Y328562D01*
X31577Y329211D01*
X31788Y329870D01*
X31972Y330537D01*
X32128Y331211D01*
X32256Y331891D01*
X32355Y332576D01*
X32427Y333264D01*
X32469Y333954D01*
X32484Y334646D01*
X32483Y334671D01*
Y342111D01*
X38100Y347727D01*
X38200Y347845D01*
X38281Y347977D01*
X38340Y348120D01*
X38377Y348271D01*
X38386Y348387D01*
X123031D01*
X123041Y348271D01*
X123077Y348120D01*
X123136Y347977D01*
X123217Y347845D01*
X123318Y347727D01*
X128934Y342111D01*
Y334672D01*
X128933Y334646D01*
X128948Y333954D01*
X128991Y333264D01*
X129062Y332576D01*
X129162Y331891D01*
X129290Y331211D01*
X129446Y330537D01*
X129629Y329870D01*
X129840Y329211D01*
X130078Y328562D01*
X130343Y327923D01*
X130634Y327295D01*
X130950Y326680D01*
X131292Y326079D01*
X131659Y325492D01*
X132049Y324921D01*
X132462Y324366D01*
X132898Y323829D01*
X133356Y323311D01*
X133835Y322812D01*
X134334Y322333D01*
X134853Y321875D01*
X135390Y321439D01*
X135944Y321025D01*
X136516Y320635D01*
X137102Y320269D01*
X137704Y319927D01*
X138319Y319610D01*
X138947Y319319D01*
X139586Y319055D01*
X140235Y318817D01*
X140894Y318605D01*
X141561Y318422D01*
X142235Y318266D01*
X142915Y318138D01*
X143599Y318038D01*
X144287Y317967D01*
X144978Y317924D01*
X145669Y317910D01*
X145695Y317910D01*
X153134D01*
X162688Y308357D01*
X162805Y308256D01*
X162938Y308175D01*
X163081Y308116D01*
X163231Y308080D01*
X163383Y308068D01*
Y287394D01*
X163318Y287312D01*
X163113Y287159D01*
X162595Y286943D01*
X162571Y286953D01*
X162390Y286997D01*
X162205Y287012D01*
X162019Y286997D01*
X161839Y286953D01*
X161667Y286882D01*
X161508Y286785D01*
X161367Y286665D01*
X161246Y286523D01*
X161149Y286365D01*
X161078Y286193D01*
X161035Y286012D01*
X161020Y285827D01*
Y261417D01*
X161035Y261232D01*
X161078Y261051D01*
X161149Y260879D01*
X161246Y260721D01*
X161367Y260580D01*
X161508Y260459D01*
X161667Y260362D01*
X161839Y260291D01*
X162019Y260247D01*
X162205Y260233D01*
X162390Y260247D01*
X162571Y260291D01*
X162595Y260301D01*
X163113Y260085D01*
X163318Y259933D01*
X163383Y259850D01*
X163383Y204724D01*
X163383Y203434D01*
X163384Y203416D01*
X163383Y203397D01*
X163390Y203306D01*
X163395Y203213D01*
X163398Y203195D01*
X163400Y203177D01*
X163736Y200618D01*
X163740Y200600D01*
X163742Y200582D01*
X163760Y200491D01*
X163777Y200401D01*
X163783Y200384D01*
X163787Y200365D01*
X164455Y197873D01*
X164460Y197855D01*
X164464Y197837D01*
X164495Y197751D01*
X164524Y197663D01*
X164531Y197646D01*
X164538Y197629D01*
X165525Y195245D01*
X165533Y195228D01*
X165539Y195211D01*
X165581Y195129D01*
X165621Y195045D01*
X165631Y195030D01*
X165639Y195013D01*
X166929Y192779D01*
X166939Y192763D01*
X166948Y192747D01*
X167000Y192671D01*
X167050Y192594D01*
X167062Y192579D01*
X167072Y192564D01*
X168643Y190517D01*
X168655Y190503D01*
X168666Y190488D01*
X168728Y190419D01*
X168788Y190349D01*
X168801Y190337D01*
X168813Y190323D01*
X170638Y188498D01*
X170652Y188486D01*
X170664Y188473D01*
X170734Y188412D01*
X170803Y188351D01*
X170818Y188340D01*
X170832Y188328D01*
X172879Y186758D01*
X172895Y186747D01*
X172909Y186735D01*
X172986Y186685D01*
X173062Y186633D01*
X173078Y186624D01*
X173094Y186614D01*
X175328Y185324D01*
X175345Y185316D01*
X175361Y185306D01*
X175443Y185266D01*
X175526Y185224D01*
X175543Y185218D01*
X175560Y185210D01*
X177944Y184222D01*
X177961Y184216D01*
X177978Y184209D01*
X178066Y184180D01*
X178152Y184150D01*
X178170Y184145D01*
X178188Y184140D01*
X180680Y183472D01*
X180699Y183468D01*
X180716Y183463D01*
X180806Y183446D01*
X180897Y183427D01*
X180915Y183425D01*
X180933Y183421D01*
X183492Y183085D01*
X183510Y183083D01*
X183528Y183080D01*
X183620Y183075D01*
X183712Y183068D01*
X183731Y183069D01*
X183749Y183068D01*
X185039Y183068D01*
X193874D01*
X193895Y183046D01*
X193907Y182891D01*
X193943Y182741D01*
X194002Y182597D01*
X194083Y182465D01*
X194184Y182348D01*
X199800Y176731D01*
Y169291D01*
X199800D01*
X199814Y168600D01*
X199819Y168512D01*
X199857Y167909D01*
X199928Y167221D01*
X200028Y166537D01*
X200156Y165857D01*
X200312Y165183D01*
X200495Y164516D01*
X200706Y163857D01*
X200944Y163208D01*
X201209Y162569D01*
X201500Y161941D01*
X201817Y161326D01*
X202158Y160724D01*
X202525Y160138D01*
X202915Y159566D01*
X203328Y159012D01*
X203765Y158475D01*
X204222Y157956D01*
X204701Y157457D01*
X205201Y156978D01*
X205719Y156520D01*
X206256Y156084D01*
X206811Y155671D01*
X207382Y155281D01*
X207969Y154914D01*
X208570Y154573D01*
X209185Y154256D01*
X209813Y153965D01*
X210452Y153700D01*
X211101Y153462D01*
X211760Y153251D01*
X212427Y153068D01*
X213101Y152912D01*
X213781Y152784D01*
X214465Y152684D01*
X215153Y152613D01*
X215844Y152570D01*
X216535Y152556D01*
X217227Y152570D01*
X217917Y152613D01*
X218605Y152684D01*
X219290Y152784D01*
X219970Y152912D01*
X220644Y153068D01*
X221311Y153251D01*
X221970Y153462D01*
X222619Y153700D01*
X223258Y153965D01*
X223886Y154256D01*
X224501Y154573D01*
X225102Y154914D01*
X225689Y155281D01*
X226260Y155671D01*
X226815Y156084D01*
X227352Y156520D01*
X227870Y156978D01*
X228369Y157457D01*
X228848Y157956D01*
X229306Y158475D01*
X229742Y159012D01*
X230156Y159566D01*
X230546Y160138D01*
X230912Y160724D01*
X231254Y161326D01*
X231571Y161941D01*
X231862Y162569D01*
X232126Y163208D01*
X232365Y163857D01*
X232575Y164516D01*
X232759Y165183D01*
X232915Y165857D01*
X233043Y166537D01*
X233143Y167221D01*
X233214Y167909D01*
X233252Y168512D01*
X233257Y168600D01*
X233271Y169291D01*
X233271D01*
Y176756D01*
X238887Y182373D01*
X238988Y182491D01*
X239069Y182623D01*
X239128Y182766D01*
X239164Y182916D01*
X239176Y183068D01*
X248031Y183068D01*
X249322Y183068D01*
X249340Y183069D01*
X249359Y183068D01*
X249450Y183075D01*
X249542Y183080D01*
X249561Y183083D01*
X249579Y183085D01*
X252137Y183421D01*
X252155Y183425D01*
X252174Y183427D01*
X252264Y183446D01*
X252355Y183463D01*
X252372Y183468D01*
X252390Y183472D01*
X254883Y184140D01*
X254900Y184145D01*
X254918Y184150D01*
X255005Y184180D01*
X255093Y184209D01*
X255110Y184216D01*
X255127Y184222D01*
X257511Y185210D01*
X257528Y185218D01*
X257545Y185224D01*
X257627Y185266D01*
X257710Y185306D01*
X257726Y185316D01*
X257742Y185324D01*
X259977Y186614D01*
X259993Y186625D01*
X260009Y186633D01*
X260085Y186685D01*
X260162Y186735D01*
X260176Y186747D01*
X260192Y186758D01*
X262239Y188328D01*
X262253Y188340D01*
X262268Y188351D01*
X262337Y188413D01*
X262406Y188473D01*
X262419Y188486D01*
X262433Y188498D01*
X264257Y190323D01*
X264270Y190337D01*
X264283Y190349D01*
X264343Y190419D01*
X264405Y190488D01*
X264415Y190503D01*
X264427Y190517D01*
X265998Y192564D01*
X266009Y192580D01*
X266020Y192594D01*
X266071Y192671D01*
X266123Y192747D01*
X266131Y192763D01*
X266142Y192779D01*
X267432Y195013D01*
X267440Y195030D01*
X267450Y195045D01*
X267490Y195129D01*
X267531Y195211D01*
X267538Y195228D01*
X267546Y195245D01*
X268533Y197629D01*
X268539Y197646D01*
X268547Y197663D01*
X268576Y197751D01*
X268606Y197837D01*
X268610Y197855D01*
X268616Y197873D01*
X269284Y200365D01*
X269288Y200384D01*
X269293Y200401D01*
X269310Y200491D01*
X269329Y200582D01*
X269331Y200600D01*
X269334Y200618D01*
X269671Y203177D01*
X269673Y203195D01*
X269676Y203213D01*
X269681Y203306D01*
X269688Y203397D01*
X269687Y203416D01*
X269688Y203434D01*
Y204724D01*
Y259851D01*
X269753Y259933D01*
X269958Y260085D01*
X270476Y260301D01*
X270500Y260291D01*
X270681Y260247D01*
X270866Y260233D01*
X271052Y260247D01*
X271232Y260291D01*
X271404Y260362D01*
X271563Y260459D01*
X271704Y260580D01*
X271825Y260721D01*
X271922Y260879D01*
X271993Y261051D01*
X272036Y261232D01*
X272051Y261417D01*
Y285827D01*
X272036Y286012D01*
X271993Y286193D01*
X271922Y286365D01*
X271825Y286523D01*
X271704Y286665D01*
X271563Y286785D01*
X271404Y286882D01*
X271232Y286953D01*
X271052Y286997D01*
X270866Y287012D01*
X270681Y286997D01*
X270500Y286953D01*
X270476Y286943D01*
X269958Y287159D01*
X269753Y287311D01*
X269688Y287394D01*
Y308068D01*
X269840Y308080D01*
X269990Y308116D01*
X270133Y308175D01*
X270265Y308256D01*
X270383Y308357D01*
X279937Y317910D01*
X287375D01*
X287402Y317910D01*
X288093Y317924D01*
X288784Y317967D01*
X289472Y318038D01*
X290156Y318138D01*
X290836Y318266D01*
X291510Y318422D01*
X292177Y318605D01*
X292836Y318817D01*
X293485Y319055D01*
X294124Y319319D01*
X294752Y319610D01*
X295367Y319927D01*
X295968Y320269D01*
X296555Y320635D01*
X297126Y321025D01*
X297681Y321439D01*
X298218Y321875D01*
X298736Y322333D01*
X299236Y322812D01*
X299714Y323311D01*
X300172Y323829D01*
X300608Y324366D01*
X301022Y324921D01*
X301412Y325492D01*
X301779Y326079D01*
X302120Y326680D01*
X302437Y327295D01*
X302728Y327923D01*
X302993Y328562D01*
X303231Y329211D01*
X303442Y329870D01*
X303625Y330537D01*
X303781Y331211D01*
X303909Y331891D01*
X304009Y332576D01*
X304080Y333264D01*
X304123Y333954D01*
X304137Y334646D01*
X304137Y334671D01*
Y342111D01*
X309753Y347727D01*
X309854Y347845D01*
X309935Y347977D01*
X309994Y348120D01*
X310030Y348271D01*
X310039Y348387D01*
X394685Y348387D01*
D02*
G37*
%LPC*%
G36*
X374882Y322835D02*
Y315787D01*
X381929D01*
X381915Y315950D01*
X381843Y316420D01*
X381743Y316885D01*
X381615Y317344D01*
X381460Y317793D01*
X381278Y318233D01*
X381070Y318661D01*
X380836Y319075D01*
X380578Y319475D01*
X380296Y319858D01*
X379991Y320224D01*
X379665Y320570D01*
X379318Y320897D01*
X378953Y321201D01*
X378570Y321483D01*
X378170Y321742D01*
X377755Y321975D01*
X377328Y322184D01*
X376888Y322366D01*
X376438Y322521D01*
X375980Y322649D01*
X375515Y322749D01*
X375044Y322820D01*
X374882Y322835D01*
D02*
G37*
G36*
X327480D02*
Y315787D01*
X334528D01*
X334513Y315950D01*
X334441Y316420D01*
X334342Y316885D01*
X334214Y317344D01*
X334059Y317793D01*
X333876Y318233D01*
X333668Y318661D01*
X333434Y319075D01*
X333176Y319475D01*
X332894Y319858D01*
X332589Y320224D01*
X332263Y320570D01*
X331917Y320897D01*
X331551Y321201D01*
X331168Y321483D01*
X330768Y321742D01*
X330354Y321975D01*
X329926Y322184D01*
X329486Y322366D01*
X329036Y322521D01*
X328578Y322649D01*
X328113Y322749D01*
X327642Y322820D01*
X327480Y322835D01*
D02*
G37*
G36*
X325905Y322835D02*
X325743Y322820D01*
X325273Y322749D01*
X324808Y322649D01*
X324349Y322521D01*
X323900Y322366D01*
X323460Y322184D01*
X323032Y321975D01*
X322618Y321742D01*
X322218Y321483D01*
X321835Y321201D01*
X321469Y320897D01*
X321123Y320570D01*
X320796Y320224D01*
X320492Y319858D01*
X320210Y319475D01*
X319951Y319075D01*
X319718Y318661D01*
X319509Y318233D01*
X319327Y317793D01*
X319172Y317344D01*
X319044Y316885D01*
X318944Y316420D01*
X318873Y315950D01*
X318858Y315787D01*
X325905D01*
Y322835D01*
D02*
G37*
G36*
X373307Y322835D02*
X373145Y322820D01*
X372674Y322749D01*
X372209Y322649D01*
X371751Y322521D01*
X371301Y322366D01*
X370861Y322184D01*
X370434Y321975D01*
X370019Y321742D01*
X369619Y321483D01*
X369236Y321201D01*
X368871Y320897D01*
X368524Y320570D01*
X368198Y320224D01*
X367893Y319858D01*
X367611Y319475D01*
X367353Y319075D01*
X367119Y318661D01*
X366911Y318233D01*
X366729Y317793D01*
X366574Y317344D01*
X366446Y316885D01*
X366346Y316420D01*
X366274Y315950D01*
X366260Y315787D01*
X373307D01*
Y322835D01*
D02*
G37*
G36*
X325905Y314213D02*
X318858D01*
X318873Y314051D01*
X318944Y313580D01*
X319044Y313115D01*
X319172Y312656D01*
X319327Y312207D01*
X319509Y311767D01*
X319718Y311339D01*
X319951Y310925D01*
X320210Y310525D01*
X320492Y310142D01*
X320796Y309776D01*
X321123Y309430D01*
X321469Y309103D01*
X321835Y308799D01*
X322218Y308517D01*
X322618Y308259D01*
X323032Y308025D01*
X323460Y307816D01*
X323900Y307634D01*
X324349Y307479D01*
X324808Y307351D01*
X325273Y307251D01*
X325743Y307180D01*
X325905Y307165D01*
Y314213D01*
D02*
G37*
G36*
X381929D02*
X374882D01*
Y307165D01*
X375044Y307180D01*
X375515Y307251D01*
X375980Y307351D01*
X376438Y307479D01*
X376888Y307634D01*
X377328Y307816D01*
X377755Y308025D01*
X378170Y308259D01*
X378570Y308517D01*
X378953Y308799D01*
X379318Y309103D01*
X379665Y309430D01*
X379991Y309776D01*
X380296Y310142D01*
X380578Y310525D01*
X380836Y310925D01*
X381070Y311339D01*
X381278Y311767D01*
X381460Y312207D01*
X381615Y312656D01*
X381743Y313115D01*
X381843Y313580D01*
X381915Y314051D01*
X381929Y314213D01*
D02*
G37*
G36*
X373307D02*
X366260D01*
X366274Y314051D01*
X366346Y313580D01*
X366446Y313115D01*
X366574Y312656D01*
X366729Y312207D01*
X366911Y311767D01*
X367119Y311339D01*
X367353Y310925D01*
X367611Y310525D01*
X367893Y310142D01*
X368198Y309776D01*
X368524Y309430D01*
X368871Y309103D01*
X369236Y308799D01*
X369619Y308517D01*
X370019Y308259D01*
X370434Y308025D01*
X370861Y307816D01*
X371301Y307634D01*
X371751Y307479D01*
X372209Y307351D01*
X372674Y307251D01*
X373145Y307180D01*
X373307Y307165D01*
Y314213D01*
D02*
G37*
G36*
X334528D02*
X327480D01*
Y307165D01*
X327642Y307180D01*
X328113Y307251D01*
X328578Y307351D01*
X329036Y307479D01*
X329486Y307634D01*
X329926Y307816D01*
X330354Y308025D01*
X330768Y308259D01*
X331168Y308517D01*
X331551Y308799D01*
X331917Y309103D01*
X332263Y309430D01*
X332589Y309776D01*
X332894Y310142D01*
X333176Y310525D01*
X333434Y310925D01*
X333668Y311339D01*
X333876Y311767D01*
X334059Y312207D01*
X334214Y312656D01*
X334342Y313115D01*
X334441Y313580D01*
X334513Y314051D01*
X334528Y314213D01*
D02*
G37*
G36*
X346260Y307987D02*
Y305118D01*
X349129D01*
X349089Y305300D01*
X348990Y305611D01*
X348865Y305913D01*
X348715Y306203D01*
X348539Y306478D01*
X348340Y306737D01*
X348120Y306978D01*
X347879Y307199D01*
X347620Y307397D01*
X347344Y307573D01*
X347055Y307724D01*
X346753Y307849D01*
X346441Y307947D01*
X346260Y307987D01*
D02*
G37*
G36*
X344685Y307987D02*
X344503Y307947D01*
X344192Y307849D01*
X343890Y307724D01*
X343601Y307573D01*
X343325Y307397D01*
X343066Y307199D01*
X342825Y306978D01*
X342605Y306737D01*
X342406Y306478D01*
X342230Y306203D01*
X342079Y305913D01*
X341954Y305611D01*
X341856Y305300D01*
X341816Y305118D01*
X344685D01*
Y307987D01*
D02*
G37*
G36*
X355315Y308074D02*
X354989Y308060D01*
X354665Y308017D01*
X354346Y307947D01*
X354034Y307849D01*
X353733Y307724D01*
X353443Y307573D01*
X353168Y307397D01*
X352909Y307199D01*
X352668Y306978D01*
X352447Y306737D01*
X352248Y306478D01*
X352073Y306203D01*
X351922Y305913D01*
X351797Y305611D01*
X351699Y305300D01*
X351628Y304981D01*
X351586Y304657D01*
X351571Y304331D01*
X351586Y304004D01*
X351628Y303681D01*
X351699Y303362D01*
X351797Y303050D01*
X351922Y302748D01*
X352073Y302459D01*
X352248Y302183D01*
X352447Y301924D01*
X352668Y301683D01*
X352909Y301463D01*
X353168Y301264D01*
X353443Y301089D01*
X353733Y300938D01*
X354034Y300813D01*
X354054Y300806D01*
Y299981D01*
X354034Y299975D01*
X353733Y299850D01*
X353443Y299699D01*
X353168Y299523D01*
X352909Y299324D01*
X352668Y299104D01*
X352447Y298863D01*
X352248Y298604D01*
X352073Y298328D01*
X351922Y298039D01*
X351797Y297737D01*
X351699Y297426D01*
X351628Y297107D01*
X351586Y296783D01*
X351571Y296457D01*
X351586Y296130D01*
X351628Y295807D01*
X351699Y295488D01*
X351797Y295176D01*
X351922Y294875D01*
X352073Y294585D01*
X352248Y294309D01*
X352447Y294050D01*
X352668Y293810D01*
X352909Y293589D01*
X353168Y293390D01*
X353443Y293215D01*
X353733Y293064D01*
X354034Y292939D01*
X354346Y292841D01*
X354665Y292770D01*
X354989Y292727D01*
X355315Y292713D01*
X355641Y292727D01*
X355965Y292770D01*
X356284Y292841D01*
X356595Y292939D01*
X356897Y293064D01*
X357187Y293215D01*
X357462Y293390D01*
X357721Y293589D01*
X357962Y293810D01*
X358183Y294050D01*
X358382Y294309D01*
X358557Y294585D01*
X358708Y294875D01*
X358833Y295176D01*
X358931Y295488D01*
X359002Y295807D01*
X359044Y296130D01*
X359059Y296457D01*
X359044Y296783D01*
X359002Y297107D01*
X358931Y297426D01*
X358833Y297737D01*
X358708Y298039D01*
X358557Y298328D01*
X358382Y298604D01*
X358183Y298863D01*
X357962Y299104D01*
X357721Y299324D01*
X357462Y299523D01*
X357187Y299699D01*
X356897Y299850D01*
X356595Y299975D01*
X356575Y299981D01*
Y300806D01*
X356595Y300813D01*
X356897Y300938D01*
X357187Y301089D01*
X357462Y301264D01*
X357721Y301463D01*
X357962Y301683D01*
X358183Y301924D01*
X358382Y302183D01*
X358557Y302459D01*
X358708Y302748D01*
X358833Y303050D01*
X358931Y303362D01*
X359002Y303681D01*
X359044Y304004D01*
X359059Y304331D01*
X359044Y304657D01*
X359002Y304981D01*
X358931Y305300D01*
X358833Y305611D01*
X358708Y305913D01*
X358557Y306203D01*
X358382Y306478D01*
X358183Y306737D01*
X357962Y306978D01*
X357721Y307199D01*
X357462Y307397D01*
X357187Y307573D01*
X356897Y307724D01*
X356595Y307849D01*
X356284Y307947D01*
X355965Y308017D01*
X355641Y308060D01*
X355315Y308074D01*
D02*
G37*
G36*
X349129Y303543D02*
X345472D01*
X341816D01*
X341856Y303362D01*
X341954Y303050D01*
X342079Y302748D01*
X342230Y302459D01*
X342406Y302183D01*
X342605Y301924D01*
X342825Y301683D01*
X343066Y301463D01*
X343325Y301264D01*
X343601Y301089D01*
X343681Y300556D01*
X343492Y300144D01*
X343247Y300073D01*
X343012Y299976D01*
X342790Y299853D01*
X342582Y299706D01*
X342393Y299536D01*
X342223Y299347D01*
X342076Y299139D01*
X341953Y298917D01*
X341856Y298682D01*
X341786Y298438D01*
X341743Y298187D01*
X341729Y297933D01*
Y294980D01*
X341743Y294726D01*
X341786Y294476D01*
X341856Y294232D01*
X341953Y293997D01*
X342076Y293774D01*
X342223Y293567D01*
X342393Y293377D01*
X342582Y293208D01*
X342790Y293060D01*
X343012Y292937D01*
X343247Y292840D01*
X343492Y292770D01*
X343742Y292727D01*
X343996Y292713D01*
X346949D01*
X347203Y292727D01*
X347453Y292770D01*
X347698Y292840D01*
X347933Y292937D01*
X348155Y293060D01*
X348362Y293208D01*
X348552Y293377D01*
X348722Y293567D01*
X348869Y293774D01*
X348992Y293997D01*
X349089Y294232D01*
X349159Y294476D01*
X349202Y294726D01*
X349216Y294980D01*
Y297933D01*
X349202Y298187D01*
X349159Y298438D01*
X349089Y298682D01*
X348992Y298917D01*
X348869Y299139D01*
X348722Y299347D01*
X348552Y299536D01*
X348362Y299706D01*
X348155Y299853D01*
X347933Y299976D01*
X347698Y300073D01*
X347453Y300144D01*
X347264Y300556D01*
X347344Y301089D01*
X347620Y301264D01*
X347879Y301463D01*
X348120Y301683D01*
X348340Y301924D01*
X348539Y302183D01*
X348715Y302459D01*
X348865Y302748D01*
X348990Y303050D01*
X349089Y303362D01*
X349129Y303543D01*
D02*
G37*
G36*
X81693Y295984D02*
Y292126D01*
X84846D01*
Y292126D01*
X84831Y292470D01*
X84786Y292810D01*
X84712Y293146D01*
X84609Y293474D01*
X84477Y293791D01*
X84318Y294096D01*
X84134Y294386D01*
X83924Y294659D01*
X83692Y294913D01*
X83439Y295145D01*
X83166Y295354D01*
X82876Y295539D01*
X82571Y295697D01*
X82253Y295829D01*
X81925Y295933D01*
X81693Y295984D01*
D02*
G37*
G36*
X80118Y295984D02*
X79886Y295933D01*
X79558Y295829D01*
X79240Y295697D01*
X78935Y295539D01*
X78645Y295354D01*
X78372Y295145D01*
X78119Y294913D01*
X77887Y294659D01*
X77677Y294386D01*
X77493Y294096D01*
X77334Y293791D01*
X77202Y293474D01*
X77099Y293146D01*
X77025Y292810D01*
X76980Y292470D01*
X76965Y292126D01*
Y292126D01*
X80118D01*
Y295984D01*
D02*
G37*
G36*
X84846Y290551D02*
X81693D01*
Y286693D01*
X81925Y286745D01*
X82253Y286848D01*
X82571Y286980D01*
X82876Y287138D01*
X83166Y287323D01*
X83439Y287532D01*
X83692Y287765D01*
X83924Y288018D01*
X84134Y288291D01*
X84318Y288581D01*
X84477Y288886D01*
X84609Y289203D01*
X84712Y289531D01*
X84786Y289867D01*
X84831Y290208D01*
X84846Y290551D01*
D02*
G37*
G36*
X80118D02*
X76965D01*
X76980Y290208D01*
X77025Y289867D01*
X77099Y289531D01*
X77202Y289203D01*
X77334Y288886D01*
X77493Y288581D01*
X77677Y288291D01*
X77887Y288018D01*
X78119Y287765D01*
X78372Y287532D01*
X78645Y287323D01*
X78935Y287138D01*
X79240Y286980D01*
X79558Y286848D01*
X79886Y286745D01*
X80118Y286693D01*
Y290551D01*
D02*
G37*
G36*
X131693Y296067D02*
X128543D01*
X128278Y296052D01*
X128017Y296007D01*
X127762Y295934D01*
X127517Y295832D01*
X127285Y295704D01*
X127068Y295550D01*
X126870Y295374D01*
X126694Y295176D01*
X126540Y294959D01*
X126412Y294727D01*
X126310Y294482D01*
X126237Y294227D01*
X126192Y293966D01*
X126177Y293701D01*
Y288976D01*
X126192Y288712D01*
X126237Y288450D01*
X126310Y288195D01*
X126412Y287950D01*
X126540Y287718D01*
X126694Y287501D01*
X126870Y287303D01*
X127068Y287127D01*
X127285Y286973D01*
X127517Y286845D01*
X127762Y286743D01*
X128017Y286670D01*
X128278Y286625D01*
X128543Y286610D01*
X131693D01*
X131958Y286625D01*
X132219Y286670D01*
X132474Y286743D01*
X132719Y286845D01*
X132952Y286973D01*
X133168Y287127D01*
X133366Y287303D01*
X133543Y287501D01*
X133696Y287718D01*
X133825Y287950D01*
X133926Y288195D01*
X134000Y288450D01*
X134044Y288712D01*
X134059Y288976D01*
Y293701D01*
X134044Y293966D01*
X134000Y294227D01*
X133926Y294482D01*
X133825Y294727D01*
X133696Y294959D01*
X133543Y295176D01*
X133366Y295374D01*
X133168Y295550D01*
X132952Y295704D01*
X132719Y295832D01*
X132474Y295934D01*
X132219Y296007D01*
X131958Y296052D01*
X131693Y296067D01*
D02*
G37*
G36*
X59646D02*
X56496D01*
X56231Y296052D01*
X55970Y296007D01*
X55715Y295934D01*
X55470Y295832D01*
X55237Y295704D01*
X55021Y295550D01*
X54823Y295374D01*
X54646Y295176D01*
X54493Y294959D01*
X54364Y294727D01*
X54263Y294482D01*
X54189Y294227D01*
X54145Y293966D01*
X54130Y293701D01*
Y288976D01*
X54145Y288712D01*
X54189Y288450D01*
X54263Y288195D01*
X54364Y287950D01*
X54493Y287718D01*
X54646Y287501D01*
X54823Y287303D01*
X55021Y287127D01*
X55237Y286973D01*
X55470Y286845D01*
X55715Y286743D01*
X55970Y286670D01*
X56231Y286625D01*
X56496Y286610D01*
X59646D01*
X59911Y286625D01*
X60172Y286670D01*
X60427Y286743D01*
X60672Y286845D01*
X60904Y286973D01*
X61121Y287127D01*
X61319Y287303D01*
X61495Y287501D01*
X61649Y287718D01*
X61777Y287950D01*
X61879Y288195D01*
X61952Y288450D01*
X61997Y288712D01*
X62012Y288976D01*
Y293701D01*
X61997Y293966D01*
X61952Y294227D01*
X61879Y294482D01*
X61777Y294727D01*
X61649Y294959D01*
X61495Y295176D01*
X61319Y295374D01*
X61121Y295550D01*
X60904Y295704D01*
X60672Y295832D01*
X60427Y295934D01*
X60172Y296007D01*
X59911Y296052D01*
X59646Y296067D01*
D02*
G37*
G36*
X120276Y296067D02*
X119932Y296052D01*
X119591Y296007D01*
X119256Y295933D01*
X118928Y295829D01*
X118610Y295697D01*
X118305Y295539D01*
X118015Y295354D01*
X117743Y295145D01*
X117489Y294913D01*
X117257Y294659D01*
X117048Y294386D01*
X116863Y294096D01*
X116704Y293791D01*
X116572Y293474D01*
X116469Y293146D01*
X116395Y292810D01*
X116350Y292470D01*
X116335Y292126D01*
Y290551D01*
X116350Y290208D01*
X116395Y289867D01*
X116469Y289531D01*
X116572Y289203D01*
X116704Y288886D01*
X116863Y288581D01*
X117048Y288291D01*
X117257Y288018D01*
X117489Y287765D01*
X117743Y287532D01*
X118015Y287323D01*
X118305Y287138D01*
X118610Y286980D01*
X118928Y286848D01*
X119256Y286745D01*
X119591Y286670D01*
X119932Y286625D01*
X120276Y286610D01*
X120619Y286625D01*
X120960Y286670D01*
X121295Y286745D01*
X121623Y286848D01*
X121941Y286980D01*
X122246Y287138D01*
X122536Y287323D01*
X122809Y287532D01*
X123062Y287765D01*
X123294Y288018D01*
X123504Y288291D01*
X123688Y288581D01*
X123847Y288886D01*
X123979Y289203D01*
X124082Y289531D01*
X124156Y289867D01*
X124201Y290208D01*
X124216Y290551D01*
Y292126D01*
X124201Y292470D01*
X124156Y292810D01*
X124082Y293146D01*
X123979Y293474D01*
X123847Y293791D01*
X123688Y294096D01*
X123504Y294386D01*
X123294Y294659D01*
X123062Y294913D01*
X122809Y295145D01*
X122536Y295354D01*
X122246Y295539D01*
X121941Y295697D01*
X121623Y295829D01*
X121295Y295933D01*
X120960Y296007D01*
X120619Y296052D01*
X120276Y296067D01*
D02*
G37*
G36*
X110433D02*
X110090Y296052D01*
X109749Y296007D01*
X109413Y295933D01*
X109085Y295829D01*
X108768Y295697D01*
X108463Y295539D01*
X108173Y295354D01*
X107900Y295145D01*
X107647Y294913D01*
X107414Y294659D01*
X107205Y294386D01*
X107020Y294096D01*
X106861Y293791D01*
X106730Y293474D01*
X106627Y293146D01*
X106552Y292810D01*
X106507Y292470D01*
X106492Y292126D01*
Y290551D01*
X106507Y290208D01*
X106552Y289867D01*
X106627Y289531D01*
X106730Y289203D01*
X106861Y288886D01*
X107020Y288581D01*
X107205Y288291D01*
X107414Y288018D01*
X107647Y287765D01*
X107900Y287532D01*
X108173Y287323D01*
X108463Y287138D01*
X108768Y286980D01*
X109085Y286848D01*
X109413Y286745D01*
X109749Y286670D01*
X110090Y286625D01*
X110433Y286610D01*
X110776Y286625D01*
X111117Y286670D01*
X111453Y286745D01*
X111781Y286848D01*
X112099Y286980D01*
X112403Y287138D01*
X112693Y287323D01*
X112966Y287532D01*
X113220Y287765D01*
X113452Y288018D01*
X113661Y288291D01*
X113846Y288581D01*
X114005Y288886D01*
X114136Y289203D01*
X114240Y289531D01*
X114314Y289867D01*
X114359Y290208D01*
X114374Y290551D01*
Y292126D01*
X114359Y292470D01*
X114314Y292810D01*
X114240Y293146D01*
X114136Y293474D01*
X114005Y293791D01*
X113846Y294096D01*
X113661Y294386D01*
X113452Y294659D01*
X113220Y294913D01*
X112966Y295145D01*
X112693Y295354D01*
X112403Y295539D01*
X112099Y295697D01*
X111781Y295829D01*
X111453Y295933D01*
X111117Y296007D01*
X110776Y296052D01*
X110433Y296067D01*
D02*
G37*
G36*
X100591D02*
X100247Y296052D01*
X99906Y296007D01*
X99571Y295933D01*
X99243Y295829D01*
X98925Y295697D01*
X98620Y295539D01*
X98330Y295354D01*
X98058Y295145D01*
X97804Y294913D01*
X97572Y294659D01*
X97363Y294386D01*
X97178Y294096D01*
X97019Y293791D01*
X96887Y293474D01*
X96784Y293146D01*
X96710Y292810D01*
X96665Y292470D01*
X96650Y292126D01*
Y290551D01*
X96665Y290208D01*
X96710Y289867D01*
X96784Y289531D01*
X96887Y289203D01*
X97019Y288886D01*
X97178Y288581D01*
X97363Y288291D01*
X97572Y288018D01*
X97804Y287765D01*
X98058Y287532D01*
X98330Y287323D01*
X98620Y287138D01*
X98925Y286980D01*
X99243Y286848D01*
X99571Y286745D01*
X99906Y286670D01*
X100247Y286625D01*
X100591Y286610D01*
X100934Y286625D01*
X101275Y286670D01*
X101611Y286745D01*
X101938Y286848D01*
X102256Y286980D01*
X102561Y287138D01*
X102851Y287323D01*
X103124Y287532D01*
X103377Y287765D01*
X103609Y288018D01*
X103819Y288291D01*
X104003Y288581D01*
X104162Y288886D01*
X104294Y289203D01*
X104397Y289531D01*
X104471Y289867D01*
X104516Y290208D01*
X104531Y290551D01*
Y292126D01*
X104516Y292470D01*
X104471Y292810D01*
X104397Y293146D01*
X104294Y293474D01*
X104162Y293791D01*
X104003Y294096D01*
X103819Y294386D01*
X103609Y294659D01*
X103377Y294913D01*
X103124Y295145D01*
X102851Y295354D01*
X102561Y295539D01*
X102256Y295697D01*
X101938Y295829D01*
X101611Y295933D01*
X101275Y296007D01*
X100934Y296052D01*
X100591Y296067D01*
D02*
G37*
G36*
X90748D02*
X90405Y296052D01*
X90064Y296007D01*
X89728Y295933D01*
X89400Y295829D01*
X89083Y295697D01*
X88778Y295539D01*
X88488Y295354D01*
X88215Y295145D01*
X87962Y294913D01*
X87729Y294659D01*
X87520Y294386D01*
X87335Y294096D01*
X87177Y293791D01*
X87045Y293474D01*
X86942Y293146D01*
X86867Y292810D01*
X86822Y292470D01*
X86807Y292126D01*
Y290551D01*
X86822Y290208D01*
X86867Y289867D01*
X86942Y289531D01*
X87045Y289203D01*
X87177Y288886D01*
X87335Y288581D01*
X87520Y288291D01*
X87729Y288018D01*
X87962Y287765D01*
X88215Y287532D01*
X88488Y287323D01*
X88778Y287138D01*
X89083Y286980D01*
X89400Y286848D01*
X89728Y286745D01*
X90064Y286670D01*
X90405Y286625D01*
X90748Y286610D01*
X91092Y286625D01*
X91432Y286670D01*
X91768Y286745D01*
X92096Y286848D01*
X92414Y286980D01*
X92718Y287138D01*
X93008Y287323D01*
X93281Y287532D01*
X93535Y287765D01*
X93767Y288018D01*
X93976Y288291D01*
X94161Y288581D01*
X94320Y288886D01*
X94451Y289203D01*
X94555Y289531D01*
X94629Y289867D01*
X94674Y290208D01*
X94689Y290551D01*
Y292126D01*
X94674Y292470D01*
X94629Y292810D01*
X94555Y293146D01*
X94451Y293474D01*
X94320Y293791D01*
X94161Y294096D01*
X93976Y294386D01*
X93767Y294659D01*
X93535Y294913D01*
X93281Y295145D01*
X93008Y295354D01*
X92718Y295539D01*
X92414Y295697D01*
X92096Y295829D01*
X91768Y295933D01*
X91432Y296007D01*
X91092Y296052D01*
X90748Y296067D01*
D02*
G37*
G36*
X48228D02*
X47885Y296052D01*
X47544Y296007D01*
X47208Y295933D01*
X46880Y295829D01*
X46563Y295697D01*
X46258Y295539D01*
X45968Y295354D01*
X45695Y295145D01*
X45442Y294913D01*
X45210Y294659D01*
X45000Y294386D01*
X44816Y294096D01*
X44657Y293791D01*
X44525Y293474D01*
X44422Y293146D01*
X44348Y292810D01*
X44303Y292470D01*
X44288Y292126D01*
Y290551D01*
X44303Y290208D01*
X44348Y289867D01*
X44422Y289531D01*
X44525Y289203D01*
X44657Y288886D01*
X44816Y288581D01*
X45000Y288291D01*
X45210Y288018D01*
X45442Y287765D01*
X45695Y287532D01*
X45968Y287323D01*
X46258Y287138D01*
X46563Y286980D01*
X46880Y286848D01*
X47208Y286745D01*
X47544Y286670D01*
X47885Y286625D01*
X48228Y286610D01*
X48572Y286625D01*
X48913Y286670D01*
X49248Y286745D01*
X49576Y286848D01*
X49894Y286980D01*
X50199Y287138D01*
X50489Y287323D01*
X50761Y287532D01*
X51015Y287765D01*
X51247Y288018D01*
X51456Y288291D01*
X51641Y288581D01*
X51800Y288886D01*
X51931Y289203D01*
X52035Y289531D01*
X52109Y289867D01*
X52154Y290208D01*
X52169Y290551D01*
Y292126D01*
X52154Y292470D01*
X52109Y292810D01*
X52035Y293146D01*
X51931Y293474D01*
X51800Y293791D01*
X51641Y294096D01*
X51456Y294386D01*
X51247Y294659D01*
X51015Y294913D01*
X50761Y295145D01*
X50489Y295354D01*
X50199Y295539D01*
X49894Y295697D01*
X49576Y295829D01*
X49248Y295933D01*
X48913Y296007D01*
X48572Y296052D01*
X48228Y296067D01*
D02*
G37*
G36*
X309449Y288980D02*
X309228Y288967D01*
X309010Y288930D01*
X308798Y288869D01*
X308593Y288784D01*
X308400Y288677D01*
X308220Y288549D01*
X308055Y288402D01*
X307907Y288237D01*
X307779Y288057D01*
X307673Y287863D01*
X307588Y287659D01*
X307527Y287447D01*
X307490Y287229D01*
X307477Y287008D01*
X307490Y286787D01*
X307527Y286569D01*
X307588Y286357D01*
X307673Y286152D01*
X307779Y285959D01*
X307907Y285779D01*
X308055Y285614D01*
X307933Y284846D01*
X307899Y284772D01*
X305218Y282090D01*
X295274D01*
X295242Y282135D01*
X295095Y282300D01*
X294930Y282447D01*
X294750Y282575D01*
X294556Y282682D01*
X294352Y282767D01*
X294140Y282828D01*
X293921Y282865D01*
X293701Y282877D01*
X293480Y282865D01*
X293262Y282828D01*
X293050Y282767D01*
X292845Y282682D01*
X292652Y282575D01*
X292472Y282447D01*
X292307Y282300D01*
X292159Y282135D01*
X292031Y281955D01*
X291924Y281761D01*
X291840Y281557D01*
X291779Y281344D01*
X291742Y281126D01*
X291729Y280906D01*
X291742Y280685D01*
X291779Y280467D01*
X291840Y280254D01*
X291924Y280050D01*
X292031Y279857D01*
X292159Y279676D01*
X292307Y279511D01*
X292472Y279364D01*
X292652Y279236D01*
X292845Y279129D01*
X293050Y279045D01*
X293262Y278983D01*
X293480Y278946D01*
X293701Y278934D01*
X293921Y278946D01*
X294140Y278983D01*
X294352Y279045D01*
X294556Y279129D01*
X294750Y279236D01*
X294930Y279364D01*
X295095Y279511D01*
X295242Y279676D01*
X295274Y279721D01*
X305709D01*
X305894Y279735D01*
X306075Y279779D01*
X306246Y279850D01*
X306405Y279947D01*
X306546Y280068D01*
X310287Y283808D01*
X310407Y283949D01*
X310504Y284108D01*
X310576Y284280D01*
X310619Y284460D01*
X310634Y284646D01*
Y285435D01*
X310678Y285466D01*
X310843Y285614D01*
X310990Y285779D01*
X311118Y285959D01*
X311225Y286152D01*
X311310Y286357D01*
X311371Y286569D01*
X311408Y286787D01*
X311420Y287008D01*
X311408Y287229D01*
X311371Y287447D01*
X311310Y287659D01*
X311225Y287863D01*
X311118Y288057D01*
X310990Y288237D01*
X310843Y288402D01*
X310678Y288549D01*
X310498Y288677D01*
X310304Y288784D01*
X310100Y288869D01*
X309888Y288930D01*
X309670Y288967D01*
X309449Y288980D01*
D02*
G37*
G36*
X66535Y186617D02*
X66315Y186605D01*
X66097Y186568D01*
X65884Y186507D01*
X65680Y186422D01*
X65487Y186315D01*
X65306Y186187D01*
X65141Y186040D01*
X64994Y185875D01*
X64866Y185695D01*
X64759Y185501D01*
X64675Y185297D01*
X64613Y185084D01*
X64576Y184866D01*
X64564Y184646D01*
X64576Y184425D01*
X64613Y184207D01*
X64675Y183994D01*
X64759Y183790D01*
X64866Y183597D01*
X64994Y183416D01*
X65141Y183252D01*
X65306Y183104D01*
X65487Y182976D01*
X65680Y182869D01*
X65884Y182785D01*
X66097Y182723D01*
X66315Y182686D01*
X66535Y182674D01*
X66756Y182686D01*
X66974Y182723D01*
X67187Y182785D01*
X67391Y182869D01*
X67584Y182976D01*
X67765Y183104D01*
X67930Y183252D01*
X68077Y183416D01*
X68108Y183461D01*
X78096D01*
X78151Y183430D01*
X78737Y182874D01*
X78750Y182653D01*
X78786Y182435D01*
X78848Y182223D01*
X78932Y182019D01*
X79039Y181825D01*
X79167Y181645D01*
X79315Y181480D01*
X79479Y181333D01*
X79660Y181205D01*
X79853Y181098D01*
X80058Y181013D01*
X80270Y180952D01*
X80488Y180915D01*
X80709Y180902D01*
X80929Y180915D01*
X81147Y180952D01*
X81360Y181013D01*
X81564Y181098D01*
X81758Y181205D01*
X81938Y181333D01*
X82103Y181480D01*
X82250Y181645D01*
X82378Y181825D01*
X82485Y182019D01*
X82570Y182223D01*
X82631Y182435D01*
X82668Y182653D01*
X82680Y182874D01*
X82668Y183095D01*
X82631Y183313D01*
X82570Y183525D01*
X82485Y183729D01*
X82378Y183923D01*
X82250Y184103D01*
X82103Y184268D01*
X81938Y184415D01*
X81758Y184543D01*
X81564Y184650D01*
X81360Y184735D01*
X81147Y184796D01*
X80929Y184833D01*
X80709Y184846D01*
X80488Y184833D01*
X80434Y184824D01*
X79775Y185483D01*
X79633Y185604D01*
X79475Y185701D01*
X79303Y185772D01*
X79122Y185816D01*
X78937Y185830D01*
X68108D01*
X68077Y185875D01*
X67930Y186040D01*
X67765Y186187D01*
X67584Y186315D01*
X67391Y186422D01*
X67187Y186507D01*
X66974Y186568D01*
X66756Y186605D01*
X66535Y186617D01*
D02*
G37*
G36*
X123622Y177169D02*
X123401Y177156D01*
X123183Y177119D01*
X122971Y177058D01*
X122767Y176973D01*
X122573Y176866D01*
X122393Y176738D01*
X122228Y176591D01*
X122081Y176426D01*
X121953Y176246D01*
X121846Y176052D01*
X121761Y175848D01*
X121700Y175636D01*
X121663Y175418D01*
X121651Y175197D01*
X121663Y174976D01*
X121700Y174758D01*
X121761Y174546D01*
X121846Y174341D01*
X121953Y174148D01*
X122081Y173968D01*
X122228Y173803D01*
X122241Y173791D01*
Y146681D01*
X122228Y146670D01*
X122081Y146505D01*
X121953Y146325D01*
X121846Y146131D01*
X121761Y145927D01*
X121700Y145714D01*
X121663Y145496D01*
X121651Y145276D01*
X121663Y145055D01*
X121700Y144837D01*
X121761Y144624D01*
X121846Y144420D01*
X121953Y144227D01*
X122081Y144046D01*
X122228Y143881D01*
X122393Y143734D01*
X122573Y143606D01*
X122767Y143499D01*
X122971Y143415D01*
X123183Y143353D01*
X123401Y143316D01*
X123622Y143304D01*
X123843Y143316D01*
X124061Y143353D01*
X124273Y143415D01*
X124478Y143499D01*
X124671Y143606D01*
X124851Y143734D01*
X125016Y143881D01*
X125163Y144046D01*
X125292Y144227D01*
X125398Y144420D01*
X125483Y144624D01*
X125544Y144837D01*
X125581Y145055D01*
X125594Y145276D01*
X125581Y145496D01*
X125544Y145714D01*
X125483Y145927D01*
X125398Y146131D01*
X125292Y146325D01*
X125163Y146505D01*
X125016Y146670D01*
X125003Y146681D01*
Y173791D01*
X125016Y173803D01*
X125163Y173968D01*
X125292Y174148D01*
X125398Y174341D01*
X125483Y174546D01*
X125544Y174758D01*
X125581Y174976D01*
X125594Y175197D01*
X125581Y175418D01*
X125544Y175636D01*
X125483Y175848D01*
X125398Y176052D01*
X125292Y176246D01*
X125163Y176426D01*
X125016Y176591D01*
X124851Y176738D01*
X124671Y176866D01*
X124478Y176973D01*
X124273Y177058D01*
X124061Y177119D01*
X123843Y177156D01*
X123622Y177169D01*
D02*
G37*
G36*
X116142Y167326D02*
X115921Y167314D01*
X115703Y167277D01*
X115491Y167215D01*
X115286Y167131D01*
X115093Y167024D01*
X114912Y166896D01*
X114748Y166748D01*
X114600Y166584D01*
X114472Y166403D01*
X114365Y166210D01*
X114281Y166006D01*
X114220Y165793D01*
X114182Y165575D01*
X114170Y165354D01*
Y145276D01*
X114182Y145055D01*
X114220Y144837D01*
X114281Y144624D01*
X114365Y144420D01*
X114472Y144227D01*
X114600Y144046D01*
X114748Y143881D01*
X114912Y143734D01*
X115093Y143606D01*
X115286Y143499D01*
X115491Y143415D01*
X115703Y143353D01*
X115921Y143316D01*
X116142Y143304D01*
X116363Y143316D01*
X116580Y143353D01*
X116793Y143415D01*
X116997Y143499D01*
X117191Y143606D01*
X117371Y143734D01*
X117536Y143881D01*
X117683Y144046D01*
X117811Y144227D01*
X117918Y144420D01*
X118003Y144624D01*
X118064Y144837D01*
X118101Y145055D01*
X118113Y145276D01*
X118113Y145276D01*
Y165354D01*
X118101Y165575D01*
X118064Y165793D01*
X118003Y166006D01*
X117918Y166210D01*
X117811Y166403D01*
X117683Y166584D01*
X117536Y166748D01*
X117371Y166896D01*
X117191Y167024D01*
X116997Y167131D01*
X116793Y167215D01*
X116580Y167277D01*
X116363Y167314D01*
X116142Y167326D01*
D02*
G37*
G36*
X109055Y177169D02*
X108834Y177156D01*
X108616Y177119D01*
X108404Y177058D01*
X108200Y176973D01*
X108006Y176866D01*
X107826Y176738D01*
X107661Y176591D01*
X107514Y176426D01*
X107386Y176246D01*
X107279Y176052D01*
X107194Y175848D01*
X107133Y175636D01*
X107096Y175418D01*
X107083Y175197D01*
X107096Y174976D01*
X107133Y174758D01*
X107194Y174546D01*
X107279Y174341D01*
X107386Y174148D01*
X107514Y173968D01*
X107661Y173803D01*
X107674Y173791D01*
Y146681D01*
X107661Y146670D01*
X107514Y146505D01*
X107386Y146325D01*
X107279Y146131D01*
X107194Y145927D01*
X107133Y145714D01*
X107096Y145496D01*
X107083Y145276D01*
X107096Y145055D01*
X107133Y144837D01*
X107194Y144624D01*
X107279Y144420D01*
X107386Y144227D01*
X107514Y144046D01*
X107661Y143881D01*
X107826Y143734D01*
X108006Y143606D01*
X108200Y143499D01*
X108404Y143415D01*
X108616Y143353D01*
X108834Y143316D01*
X109055Y143304D01*
X109276Y143316D01*
X109494Y143353D01*
X109706Y143415D01*
X109911Y143499D01*
X110104Y143606D01*
X110284Y143734D01*
X110449Y143881D01*
X110597Y144046D01*
X110724Y144227D01*
X110831Y144420D01*
X110916Y144624D01*
X110977Y144837D01*
X111014Y145055D01*
X111027Y145276D01*
X111014Y145496D01*
X110977Y145714D01*
X110916Y145927D01*
X110831Y146131D01*
X110724Y146325D01*
X110597Y146505D01*
X110449Y146670D01*
X110436Y146681D01*
Y173791D01*
X110449Y173803D01*
X110597Y173968D01*
X110724Y174148D01*
X110831Y174341D01*
X110916Y174546D01*
X110977Y174758D01*
X111014Y174976D01*
X111027Y175197D01*
X111014Y175418D01*
X110977Y175636D01*
X110916Y175848D01*
X110831Y176052D01*
X110724Y176246D01*
X110597Y176426D01*
X110449Y176591D01*
X110284Y176738D01*
X110104Y176866D01*
X109911Y176973D01*
X109706Y177058D01*
X109494Y177119D01*
X109276Y177156D01*
X109055Y177169D01*
D02*
G37*
G36*
X101969D02*
X101748Y177156D01*
X101530Y177119D01*
X101317Y177058D01*
X101113Y176973D01*
X100920Y176866D01*
X100739Y176738D01*
X100574Y176591D01*
X100427Y176426D01*
X100299Y176246D01*
X100192Y176052D01*
X100108Y175848D01*
X100046Y175636D01*
X100009Y175418D01*
X99997Y175197D01*
X100009Y174976D01*
X100046Y174758D01*
X100108Y174546D01*
X100192Y174341D01*
X100299Y174148D01*
X100427Y173968D01*
X100574Y173803D01*
X100588Y173791D01*
Y146681D01*
X100574Y146670D01*
X100427Y146505D01*
X100299Y146325D01*
X100192Y146131D01*
X100108Y145927D01*
X100046Y145714D01*
X100009Y145496D01*
X99997Y145276D01*
X100009Y145055D01*
X100046Y144837D01*
X100108Y144624D01*
X100192Y144420D01*
X100299Y144227D01*
X100427Y144046D01*
X100574Y143881D01*
X100739Y143734D01*
X100920Y143606D01*
X101113Y143499D01*
X101317Y143415D01*
X101530Y143353D01*
X101748Y143316D01*
X101969Y143304D01*
X102189Y143316D01*
X102407Y143353D01*
X102620Y143415D01*
X102824Y143499D01*
X103017Y143606D01*
X103198Y143734D01*
X103363Y143881D01*
X103510Y144046D01*
X103638Y144227D01*
X103745Y144420D01*
X103830Y144624D01*
X103891Y144837D01*
X103928Y145055D01*
X103940Y145276D01*
X103928Y145496D01*
X103891Y145714D01*
X103830Y145927D01*
X103745Y146131D01*
X103638Y146325D01*
X103510Y146505D01*
X103363Y146670D01*
X103349Y146681D01*
Y173791D01*
X103363Y173803D01*
X103510Y173968D01*
X103638Y174148D01*
X103745Y174341D01*
X103830Y174546D01*
X103891Y174758D01*
X103928Y174976D01*
X103940Y175197D01*
X103928Y175418D01*
X103891Y175636D01*
X103830Y175848D01*
X103745Y176052D01*
X103638Y176246D01*
X103510Y176426D01*
X103363Y176591D01*
X103198Y176738D01*
X103017Y176866D01*
X102824Y176973D01*
X102620Y177058D01*
X102407Y177119D01*
X102189Y177156D01*
X101969Y177169D01*
D02*
G37*
G36*
X94095Y115751D02*
X93874Y115739D01*
X93656Y115702D01*
X93444Y115641D01*
X93239Y115556D01*
X93046Y115449D01*
X92866Y115321D01*
X92701Y115174D01*
X92553Y115009D01*
X92425Y114829D01*
X92318Y114635D01*
X92234Y114431D01*
X92173Y114219D01*
X92136Y114001D01*
X92123Y113780D01*
X92136Y113559D01*
X92173Y113341D01*
X92234Y113129D01*
X92318Y112924D01*
X92425Y112731D01*
X92553Y112551D01*
X92701Y112386D01*
X92714Y112374D01*
Y106524D01*
X92700Y106512D01*
X92553Y106347D01*
X92425Y106167D01*
X92318Y105974D01*
X92234Y105769D01*
X92172Y105557D01*
X92135Y105339D01*
X92123Y105118D01*
X92135Y104897D01*
X92172Y104679D01*
X92234Y104467D01*
X92318Y104263D01*
X92425Y104069D01*
X92553Y103889D01*
X92700Y103724D01*
X92739Y103690D01*
X92761Y103580D01*
X92819Y103409D01*
X92899Y103247D01*
X92999Y103096D01*
X93118Y102961D01*
X93254Y102841D01*
X93404Y102741D01*
X93566Y102661D01*
X93737Y102603D01*
X93914Y102568D01*
X94095Y102556D01*
X94275Y102568D01*
X94452Y102603D01*
X94623Y102661D01*
X94785Y102741D01*
X94935Y102841D01*
X95071Y102961D01*
X95071Y102961D01*
X95190Y103097D01*
X95291Y103247D01*
X95371Y103409D01*
X95429Y103580D01*
X95451Y103690D01*
X95489Y103724D01*
X95636Y103889D01*
X95764Y104069D01*
X95871Y104263D01*
X95955Y104467D01*
X96017Y104679D01*
X96054Y104897D01*
X96066Y105118D01*
X96054Y105339D01*
X96017Y105557D01*
X95955Y105769D01*
X95871Y105974D01*
X95764Y106167D01*
X95636Y106347D01*
X95489Y106512D01*
X95476Y106524D01*
Y112374D01*
X95489Y112386D01*
X95636Y112551D01*
X95764Y112731D01*
X95871Y112924D01*
X95956Y113129D01*
X96017Y113341D01*
X96054Y113559D01*
X96066Y113780D01*
X96054Y114001D01*
X96017Y114219D01*
X95956Y114431D01*
X95871Y114635D01*
X95764Y114829D01*
X95636Y115009D01*
X95489Y115174D01*
X95324Y115321D01*
X95144Y115449D01*
X94950Y115556D01*
X94746Y115641D01*
X94533Y115702D01*
X94316Y115739D01*
X94095Y115751D01*
D02*
G37*
G36*
X274803Y81893D02*
X264567D01*
X264346Y81880D01*
X264128Y81843D01*
X263916Y81782D01*
X263712Y81698D01*
X263518Y81591D01*
X263338Y81463D01*
X263173Y81315D01*
X263025Y81151D01*
X262897Y80970D01*
X262791Y80777D01*
X262706Y80572D01*
X262645Y80360D01*
X262608Y80142D01*
X262595Y79921D01*
X262608Y79700D01*
X262645Y79483D01*
X262706Y79270D01*
X262791Y79066D01*
X262897Y78872D01*
X263025Y78692D01*
X263173Y78527D01*
X263338Y78380D01*
X263518Y78252D01*
X263712Y78145D01*
X263916Y78060D01*
X264128Y77999D01*
X264346Y77962D01*
X264567Y77950D01*
X274803D01*
X275024Y77962D01*
X275242Y77999D01*
X275454Y78060D01*
X275659Y78145D01*
X275852Y78252D01*
X276032Y78380D01*
X276197Y78527D01*
X276345Y78692D01*
X276473Y78872D01*
X276579Y79066D01*
X276664Y79270D01*
X276725Y79483D01*
X276762Y79700D01*
X276775Y79921D01*
X276762Y80142D01*
X276725Y80360D01*
X276664Y80572D01*
X276579Y80777D01*
X276473Y80970D01*
X276345Y81151D01*
X276197Y81315D01*
X276032Y81463D01*
X275852Y81591D01*
X275659Y81698D01*
X275454Y81782D01*
X275242Y81843D01*
X275024Y81880D01*
X274803Y81893D01*
D02*
G37*
G36*
X261417Y55516D02*
X261108Y55500D01*
X260802Y55455D01*
X260502Y55380D01*
X260211Y55276D01*
X259931Y55143D01*
X259665Y54984D01*
X259417Y54800D01*
X259188Y54592D01*
X256961Y52366D01*
X187624D01*
X187540Y52460D01*
X187342Y52637D01*
X187126Y52791D01*
X186893Y52919D01*
X186648Y53021D01*
X186393Y53094D01*
X186132Y53138D01*
X185867Y53153D01*
X182717D01*
X182452Y53138D01*
X182191Y53094D01*
X181936Y53021D01*
X181691Y52919D01*
X181458Y52791D01*
X181242Y52637D01*
X181044Y52460D01*
X180867Y52263D01*
X180714Y52046D01*
X180586Y51814D01*
X180484Y51569D01*
X180411Y51314D01*
X180366Y51052D01*
X180351Y50787D01*
Y47638D01*
X180366Y47373D01*
X180411Y47111D01*
X180484Y46856D01*
X180586Y46611D01*
X180714Y46379D01*
X180867Y46163D01*
X181044Y45965D01*
X181242Y45788D01*
X181458Y45634D01*
X181691Y45506D01*
X181936Y45405D01*
X182191Y45331D01*
X182452Y45287D01*
X182717Y45272D01*
X185867D01*
X186132Y45287D01*
X186393Y45331D01*
X186648Y45405D01*
X186893Y45506D01*
X187126Y45634D01*
X187342Y45788D01*
X187540Y45965D01*
X187624Y46059D01*
X258268D01*
X258577Y46074D01*
X258883Y46120D01*
X259183Y46195D01*
X259474Y46299D01*
X259754Y46431D01*
X260020Y46591D01*
X260268Y46775D01*
X260497Y46983D01*
X263647Y50132D01*
X263855Y50362D01*
X264039Y50610D01*
X264198Y50876D01*
X264331Y51156D01*
X264435Y51447D01*
X264510Y51747D01*
X264556Y52053D01*
X264571Y52362D01*
X264556Y52671D01*
X264510Y52977D01*
X264435Y53278D01*
X264331Y53569D01*
X264198Y53849D01*
X264039Y54114D01*
X263855Y54363D01*
X263647Y54592D01*
X263418Y54800D01*
X263169Y54984D01*
X262904Y55143D01*
X262624Y55276D01*
X262333Y55380D01*
X262033Y55455D01*
X261726Y55500D01*
X261417Y55516D01*
D02*
G37*
G36*
X155079Y53071D02*
Y50000D01*
X158150D01*
X158098Y50232D01*
X157995Y50560D01*
X157863Y50878D01*
X157705Y51183D01*
X157520Y51473D01*
X157311Y51746D01*
X157079Y51999D01*
X156825Y52231D01*
X156552Y52441D01*
X156262Y52625D01*
X155957Y52784D01*
X155640Y52916D01*
X155312Y53019D01*
X155079Y53071D01*
D02*
G37*
G36*
X153505Y53071D02*
X153272Y53019D01*
X152944Y52916D01*
X152627Y52784D01*
X152322Y52625D01*
X152032Y52441D01*
X151759Y52231D01*
X151505Y51999D01*
X151273Y51746D01*
X151064Y51473D01*
X150879Y51183D01*
X150721Y50878D01*
X150589Y50560D01*
X150486Y50232D01*
X150434Y50000D01*
X153505D01*
Y53071D01*
D02*
G37*
G36*
Y48425D02*
X150434D01*
X150486Y48193D01*
X150589Y47865D01*
X150721Y47547D01*
X150879Y47242D01*
X151064Y46952D01*
X151273Y46679D01*
X151505Y46426D01*
X151759Y46194D01*
X152032Y45985D01*
X152322Y45800D01*
X152627Y45641D01*
X152944Y45509D01*
X153272Y45406D01*
X153505Y45355D01*
Y48425D01*
D02*
G37*
G36*
X158150D02*
X155079D01*
Y45355D01*
X155312Y45406D01*
X155640Y45509D01*
X155957Y45641D01*
X156262Y45800D01*
X156552Y45985D01*
X156825Y46194D01*
X157079Y46426D01*
X157311Y46679D01*
X157520Y46952D01*
X157705Y47242D01*
X157863Y47547D01*
X157995Y47865D01*
X158098Y48193D01*
X158150Y48425D01*
D02*
G37*
G36*
X174292Y53153D02*
X173949Y53138D01*
X173608Y53093D01*
X173272Y53019D01*
X172944Y52916D01*
X172626Y52784D01*
X172322Y52625D01*
X172032Y52441D01*
X171759Y52231D01*
X171505Y51999D01*
X171273Y51746D01*
X171064Y51473D01*
X170879Y51183D01*
X170721Y50878D01*
X170589Y50560D01*
X170485Y50232D01*
X170411Y49897D01*
X170366Y49556D01*
X170351Y49213D01*
X170366Y48869D01*
X170411Y48528D01*
X170485Y48193D01*
X170589Y47865D01*
X170721Y47547D01*
X170879Y47242D01*
X171064Y46952D01*
X171273Y46679D01*
X171505Y46426D01*
X171759Y46194D01*
X172032Y45985D01*
X172322Y45800D01*
X172626Y45641D01*
X172944Y45509D01*
X173272Y45406D01*
X173608Y45332D01*
X173949Y45287D01*
X174292Y45272D01*
X174635Y45287D01*
X174976Y45332D01*
X175312Y45406D01*
X175640Y45509D01*
X175957Y45641D01*
X176262Y45800D01*
X176552Y45985D01*
X176825Y46194D01*
X177078Y46426D01*
X177311Y46679D01*
X177520Y46952D01*
X177705Y47242D01*
X177864Y47547D01*
X177995Y47865D01*
X178098Y48193D01*
X178173Y48528D01*
X178218Y48869D01*
X178233Y49213D01*
X178218Y49556D01*
X178173Y49897D01*
X178098Y50232D01*
X177995Y50560D01*
X177864Y50878D01*
X177705Y51183D01*
X177520Y51473D01*
X177311Y51746D01*
X177078Y51999D01*
X176825Y52231D01*
X176552Y52441D01*
X176262Y52625D01*
X175957Y52784D01*
X175640Y52916D01*
X175312Y53019D01*
X174976Y53093D01*
X174635Y53138D01*
X174292Y53153D01*
D02*
G37*
G36*
X164292D02*
X163949Y53138D01*
X163608Y53093D01*
X163272Y53019D01*
X162944Y52916D01*
X162627Y52784D01*
X162322Y52625D01*
X162032Y52441D01*
X161759Y52231D01*
X161505Y51999D01*
X161273Y51746D01*
X161064Y51473D01*
X160879Y51183D01*
X160721Y50878D01*
X160589Y50560D01*
X160485Y50232D01*
X160411Y49897D01*
X160366Y49556D01*
X160351Y49213D01*
X160366Y48869D01*
X160411Y48528D01*
X160485Y48193D01*
X160589Y47865D01*
X160721Y47547D01*
X160879Y47242D01*
X161064Y46952D01*
X161273Y46679D01*
X161505Y46426D01*
X161759Y46194D01*
X162032Y45985D01*
X162322Y45800D01*
X162627Y45641D01*
X162944Y45509D01*
X163272Y45406D01*
X163608Y45332D01*
X163949Y45287D01*
X164292Y45272D01*
X164635Y45287D01*
X164976Y45332D01*
X165312Y45406D01*
X165640Y45509D01*
X165957Y45641D01*
X166262Y45800D01*
X166552Y45985D01*
X166825Y46194D01*
X167078Y46426D01*
X167311Y46679D01*
X167520Y46952D01*
X167705Y47242D01*
X167864Y47547D01*
X167995Y47865D01*
X168098Y48193D01*
X168173Y48528D01*
X168218Y48869D01*
X168233Y49213D01*
X168218Y49556D01*
X168173Y49897D01*
X168098Y50232D01*
X167995Y50560D01*
X167864Y50878D01*
X167705Y51183D01*
X167520Y51473D01*
X167311Y51746D01*
X167078Y51999D01*
X166825Y52231D01*
X166552Y52441D01*
X166262Y52625D01*
X165957Y52784D01*
X165640Y52916D01*
X165312Y53019D01*
X164976Y53093D01*
X164635Y53138D01*
X164292Y53153D01*
D02*
G37*
G36*
X218111Y44885D02*
X217890Y44873D01*
X217672Y44836D01*
X217459Y44775D01*
X217255Y44690D01*
X217062Y44583D01*
X216881Y44455D01*
X216716Y44308D01*
X216569Y44143D01*
X216441Y43963D01*
X216334Y43769D01*
X216250Y43565D01*
X216188Y43352D01*
X216151Y43134D01*
X216139Y42914D01*
X216151Y42693D01*
X216188Y42475D01*
X216250Y42263D01*
X216334Y42058D01*
X216441Y41865D01*
X216569Y41684D01*
X216716Y41520D01*
X216881Y41372D01*
X217062Y41244D01*
X217255Y41137D01*
X217459Y41053D01*
X217672Y40992D01*
X217890Y40955D01*
X218111Y40942D01*
X218331Y40955D01*
X218549Y40992D01*
X218762Y41053D01*
X218966Y41137D01*
X219160Y41244D01*
X219340Y41372D01*
X219505Y41520D01*
X219516Y41533D01*
X229696D01*
X229708Y41519D01*
X229873Y41372D01*
X230053Y41244D01*
X230247Y41137D01*
X230451Y41052D01*
X230664Y40991D01*
X230882Y40954D01*
X231102Y40942D01*
X231323Y40954D01*
X231541Y40991D01*
X231753Y41052D01*
X231958Y41137D01*
X232151Y41244D01*
X232332Y41372D01*
X232497Y41519D01*
X232644Y41684D01*
X232772Y41864D01*
X232879Y42058D01*
X232963Y42262D01*
X233025Y42475D01*
X233062Y42693D01*
X233074Y42913D01*
X233062Y43134D01*
X233025Y43352D01*
X232963Y43565D01*
X232879Y43769D01*
X232772Y43962D01*
X232644Y44143D01*
X232497Y44308D01*
X232332Y44455D01*
X232151Y44583D01*
X231958Y44690D01*
X231753Y44774D01*
X231541Y44836D01*
X231323Y44873D01*
X231102Y44885D01*
X230882Y44873D01*
X230664Y44836D01*
X230451Y44774D01*
X230247Y44690D01*
X230053Y44583D01*
X229873Y44455D01*
X229708Y44308D01*
X229697Y44295D01*
X219516D01*
X219505Y44308D01*
X219340Y44455D01*
X219160Y44583D01*
X218966Y44690D01*
X218762Y44775D01*
X218549Y44836D01*
X218331Y44873D01*
X218111Y44885D01*
D02*
G37*
G36*
X255560Y36224D02*
X255339Y36211D01*
X255121Y36174D01*
X254909Y36113D01*
X254704Y36028D01*
X254511Y35921D01*
X254331Y35793D01*
X254166Y35646D01*
X254154Y35633D01*
X242548D01*
X242536Y35646D01*
X242371Y35793D01*
X242191Y35921D01*
X241997Y36028D01*
X241793Y36113D01*
X241581Y36174D01*
X241363Y36211D01*
X241142Y36224D01*
X240921Y36211D01*
X240703Y36174D01*
X240491Y36113D01*
X240286Y36028D01*
X240093Y35921D01*
X239913Y35793D01*
X239748Y35646D01*
X239600Y35481D01*
X239472Y35301D01*
X239365Y35107D01*
X239281Y34903D01*
X239220Y34691D01*
X239182Y34473D01*
X239170Y34252D01*
X239182Y34031D01*
X239220Y33813D01*
X239281Y33601D01*
X239365Y33397D01*
X239472Y33203D01*
X239600Y33023D01*
X239748Y32858D01*
X239913Y32710D01*
X240093Y32583D01*
X240286Y32476D01*
X240491Y32391D01*
X240703Y32330D01*
X240921Y32293D01*
X241142Y32280D01*
X241363Y32293D01*
X241581Y32330D01*
X241793Y32391D01*
X241997Y32476D01*
X242191Y32583D01*
X242371Y32710D01*
X242536Y32858D01*
X242548Y32871D01*
X254154D01*
X254166Y32858D01*
X254331Y32710D01*
X254511Y32583D01*
X254704Y32476D01*
X254909Y32391D01*
X255121Y32330D01*
X255339Y32293D01*
X255560Y32280D01*
X255781Y32293D01*
X255999Y32330D01*
X256211Y32391D01*
X256415Y32476D01*
X256609Y32583D01*
X256789Y32710D01*
X256954Y32858D01*
X257101Y33023D01*
X257229Y33203D01*
X257336Y33397D01*
X257421Y33601D01*
X257482Y33813D01*
X257519Y34031D01*
X257532Y34252D01*
X257519Y34473D01*
X257482Y34691D01*
X257421Y34903D01*
X257336Y35107D01*
X257229Y35301D01*
X257101Y35481D01*
X256954Y35646D01*
X256789Y35793D01*
X256609Y35921D01*
X256415Y36028D01*
X256211Y36113D01*
X255999Y36174D01*
X255781Y36211D01*
X255560Y36224D01*
D02*
G37*
G36*
X361614Y30318D02*
X358071D01*
X357820Y30306D01*
X357571Y30269D01*
X357327Y30208D01*
X357090Y30123D01*
X356863Y30016D01*
X356647Y29886D01*
X356446Y29737D01*
X356259Y29568D01*
X356090Y29381D01*
X355941Y29179D01*
X355811Y28964D01*
X355704Y28736D01*
X355619Y28500D01*
X355558Y28256D01*
X355521Y28007D01*
X355509Y27756D01*
Y22638D01*
X355521Y22387D01*
X355558Y22138D01*
X355619Y21894D01*
X355704Y21657D01*
X355811Y21430D01*
X355941Y21214D01*
X356090Y21012D01*
X356259Y20826D01*
X356446Y20657D01*
X356647Y20507D01*
X356863Y20378D01*
X357090Y20271D01*
X357327Y20186D01*
X357571Y20125D01*
X357820Y20088D01*
X358071Y20076D01*
X361614D01*
X361865Y20088D01*
X362114Y20125D01*
X362358Y20186D01*
X362595Y20271D01*
X362822Y20378D01*
X363038Y20507D01*
X363240Y20657D01*
X363426Y20826D01*
X363595Y21012D01*
X363744Y21214D01*
X363874Y21430D01*
X363981Y21657D01*
X364066Y21894D01*
X364127Y22138D01*
X364164Y22387D01*
X364176Y22638D01*
Y27756D01*
X364164Y28007D01*
X364127Y28256D01*
X364066Y28500D01*
X363981Y28736D01*
X363874Y28964D01*
X363744Y29179D01*
X363595Y29381D01*
X363426Y29568D01*
X363240Y29737D01*
X363038Y29886D01*
X362822Y30016D01*
X362595Y30123D01*
X362358Y30208D01*
X362114Y30269D01*
X361865Y30306D01*
X361614Y30318D01*
D02*
G37*
G36*
X334842D02*
X331299D01*
X331048Y30306D01*
X330799Y30269D01*
X330556Y30208D01*
X330319Y30123D01*
X330091Y30016D01*
X329876Y29886D01*
X329674Y29737D01*
X329487Y29568D01*
X329319Y29381D01*
X329169Y29179D01*
X329040Y28964D01*
X328932Y28736D01*
X328847Y28500D01*
X328786Y28256D01*
X328749Y28007D01*
X328737Y27756D01*
Y22638D01*
X328749Y22387D01*
X328786Y22138D01*
X328847Y21894D01*
X328932Y21657D01*
X329040Y21430D01*
X329169Y21214D01*
X329319Y21012D01*
X329487Y20826D01*
X329674Y20657D01*
X329876Y20507D01*
X330091Y20378D01*
X330319Y20271D01*
X330556Y20186D01*
X330799Y20125D01*
X331048Y20088D01*
X331299Y20076D01*
X334842D01*
X335094Y20088D01*
X335342Y20125D01*
X335586Y20186D01*
X335823Y20271D01*
X336050Y20378D01*
X336266Y20507D01*
X336468Y20657D01*
X336654Y20826D01*
X336823Y21012D01*
X336973Y21214D01*
X337102Y21430D01*
X337210Y21657D01*
X337294Y21894D01*
X337355Y22138D01*
X337392Y22387D01*
X337405Y22638D01*
Y27756D01*
X337392Y28007D01*
X337355Y28256D01*
X337294Y28500D01*
X337210Y28736D01*
X337102Y28964D01*
X336973Y29179D01*
X336823Y29381D01*
X336654Y29568D01*
X336468Y29737D01*
X336266Y29886D01*
X336050Y30016D01*
X335823Y30123D01*
X335586Y30208D01*
X335342Y30269D01*
X335094Y30306D01*
X334842Y30318D01*
D02*
G37*
G36*
X133268D02*
X129724D01*
X129473Y30306D01*
X129225Y30269D01*
X128981Y30208D01*
X128744Y30123D01*
X128517Y30016D01*
X128301Y29886D01*
X128099Y29737D01*
X127913Y29568D01*
X127744Y29381D01*
X127594Y29179D01*
X127465Y28964D01*
X127357Y28736D01*
X127273Y28500D01*
X127211Y28256D01*
X127175Y28007D01*
X127162Y27756D01*
Y22638D01*
X127175Y22387D01*
X127211Y22138D01*
X127273Y21894D01*
X127357Y21657D01*
X127465Y21430D01*
X127594Y21214D01*
X127744Y21012D01*
X127913Y20826D01*
X128099Y20657D01*
X128301Y20507D01*
X128517Y20378D01*
X128744Y20271D01*
X128981Y20186D01*
X129225Y20125D01*
X129473Y20088D01*
X129724Y20076D01*
X133268D01*
X133519Y20088D01*
X133768Y20125D01*
X134011Y20186D01*
X134248Y20271D01*
X134476Y20378D01*
X134691Y20507D01*
X134893Y20657D01*
X135079Y20826D01*
X135248Y21012D01*
X135398Y21214D01*
X135527Y21430D01*
X135635Y21657D01*
X135720Y21894D01*
X135781Y22138D01*
X135818Y22387D01*
X135830Y22638D01*
Y27756D01*
X135818Y28007D01*
X135781Y28256D01*
X135720Y28500D01*
X135635Y28736D01*
X135527Y28964D01*
X135398Y29179D01*
X135248Y29381D01*
X135079Y29568D01*
X134893Y29737D01*
X134691Y29886D01*
X134476Y30016D01*
X134248Y30123D01*
X134011Y30208D01*
X133768Y30269D01*
X133519Y30306D01*
X133268Y30318D01*
D02*
G37*
G36*
X106496D02*
X102953D01*
X102702Y30306D01*
X102453Y30269D01*
X102209Y30208D01*
X101972Y30123D01*
X101745Y30016D01*
X101529Y29886D01*
X101327Y29737D01*
X101141Y29568D01*
X100972Y29381D01*
X100822Y29179D01*
X100693Y28964D01*
X100586Y28736D01*
X100501Y28500D01*
X100440Y28256D01*
X100403Y28007D01*
X100391Y27756D01*
Y22638D01*
X100403Y22387D01*
X100440Y22138D01*
X100501Y21894D01*
X100586Y21657D01*
X100693Y21430D01*
X100822Y21214D01*
X100972Y21012D01*
X101141Y20826D01*
X101327Y20657D01*
X101529Y20507D01*
X101745Y20378D01*
X101972Y20271D01*
X102209Y20186D01*
X102453Y20125D01*
X102702Y20088D01*
X102953Y20076D01*
X106496D01*
X106747Y20088D01*
X106996Y20125D01*
X107240Y20186D01*
X107476Y20271D01*
X107704Y20378D01*
X107920Y20507D01*
X108122Y20657D01*
X108308Y20826D01*
X108477Y21012D01*
X108626Y21214D01*
X108756Y21430D01*
X108863Y21657D01*
X108948Y21894D01*
X109009Y22138D01*
X109046Y22387D01*
X109058Y22638D01*
Y27756D01*
X109046Y28007D01*
X109009Y28256D01*
X108948Y28500D01*
X108863Y28736D01*
X108756Y28964D01*
X108626Y29179D01*
X108477Y29381D01*
X108308Y29568D01*
X108122Y29737D01*
X107920Y29886D01*
X107704Y30016D01*
X107476Y30123D01*
X107240Y30208D01*
X106996Y30269D01*
X106747Y30306D01*
X106496Y30318D01*
D02*
G37*
G36*
X70276D02*
X66732D01*
X66481Y30306D01*
X66232Y30269D01*
X65988Y30208D01*
X65752Y30123D01*
X65525Y30016D01*
X65309Y29886D01*
X65107Y29737D01*
X64921Y29568D01*
X64752Y29381D01*
X64602Y29179D01*
X64473Y28964D01*
X64365Y28736D01*
X64280Y28500D01*
X64219Y28256D01*
X64183Y28007D01*
X64170Y27756D01*
Y22638D01*
X64183Y22387D01*
X64219Y22138D01*
X64280Y21894D01*
X64365Y21657D01*
X64473Y21430D01*
X64602Y21214D01*
X64752Y21012D01*
X64921Y20826D01*
X65107Y20657D01*
X65309Y20507D01*
X65525Y20378D01*
X65752Y20271D01*
X65988Y20186D01*
X66232Y20125D01*
X66481Y20088D01*
X66732Y20076D01*
X70276D01*
X70527Y20088D01*
X70775Y20125D01*
X71019Y20186D01*
X71256Y20271D01*
X71483Y20378D01*
X71699Y20507D01*
X71901Y20657D01*
X72087Y20826D01*
X72256Y21012D01*
X72406Y21214D01*
X72535Y21430D01*
X72643Y21657D01*
X72727Y21894D01*
X72789Y22138D01*
X72825Y22387D01*
X72838Y22638D01*
Y27756D01*
X72825Y28007D01*
X72789Y28256D01*
X72727Y28500D01*
X72643Y28736D01*
X72535Y28964D01*
X72406Y29179D01*
X72256Y29381D01*
X72087Y29568D01*
X71901Y29737D01*
X71699Y29886D01*
X71483Y30016D01*
X71256Y30123D01*
X71019Y30208D01*
X70775Y30269D01*
X70527Y30306D01*
X70276Y30318D01*
D02*
G37*
G36*
X43504D02*
X39961D01*
X39709Y30306D01*
X39461Y30269D01*
X39217Y30208D01*
X38980Y30123D01*
X38753Y30016D01*
X38537Y29886D01*
X38335Y29737D01*
X38149Y29568D01*
X37980Y29381D01*
X37830Y29179D01*
X37701Y28964D01*
X37593Y28736D01*
X37509Y28500D01*
X37448Y28256D01*
X37411Y28007D01*
X37398Y27756D01*
Y22638D01*
X37411Y22387D01*
X37448Y22138D01*
X37509Y21894D01*
X37593Y21657D01*
X37701Y21430D01*
X37830Y21214D01*
X37980Y21012D01*
X38149Y20826D01*
X38335Y20657D01*
X38537Y20507D01*
X38753Y20378D01*
X38980Y20271D01*
X39217Y20186D01*
X39461Y20125D01*
X39709Y20088D01*
X39961Y20076D01*
X43504D01*
X43755Y20088D01*
X44004Y20125D01*
X44248Y20186D01*
X44484Y20271D01*
X44712Y20378D01*
X44927Y20507D01*
X45129Y20657D01*
X45316Y20826D01*
X45485Y21012D01*
X45634Y21214D01*
X45763Y21430D01*
X45871Y21657D01*
X45956Y21894D01*
X46017Y22138D01*
X46054Y22387D01*
X46066Y22638D01*
Y27756D01*
X46054Y28007D01*
X46017Y28256D01*
X45956Y28500D01*
X45871Y28736D01*
X45763Y28964D01*
X45634Y29179D01*
X45485Y29381D01*
X45316Y29568D01*
X45129Y29737D01*
X44927Y29886D01*
X44712Y30016D01*
X44484Y30123D01*
X44248Y30208D01*
X44004Y30269D01*
X43755Y30306D01*
X43504Y30318D01*
D02*
G37*
G36*
X222323Y20984D02*
Y17913D01*
X225394D01*
X225342Y18146D01*
X225238Y18474D01*
X225107Y18791D01*
X224948Y19096D01*
X224763Y19386D01*
X224554Y19659D01*
X224322Y19913D01*
X224068Y20145D01*
X223796Y20354D01*
X223506Y20539D01*
X223201Y20697D01*
X222883Y20829D01*
X222555Y20933D01*
X222323Y20984D01*
D02*
G37*
G36*
X220748Y20984D02*
X220515Y20933D01*
X220188Y20829D01*
X219870Y20697D01*
X219565Y20539D01*
X219275Y20354D01*
X219002Y20145D01*
X218749Y19913D01*
X218517Y19659D01*
X218307Y19386D01*
X218123Y19096D01*
X217964Y18791D01*
X217832Y18474D01*
X217729Y18146D01*
X217677Y17913D01*
X220748D01*
Y20984D01*
D02*
G37*
G36*
X338386Y19212D02*
Y16142D01*
X341456D01*
X341405Y16374D01*
X341301Y16702D01*
X341170Y17020D01*
X341011Y17325D01*
X340827Y17615D01*
X340617Y17887D01*
X340385Y18141D01*
X340131Y18373D01*
X339859Y18582D01*
X339569Y18767D01*
X339264Y18926D01*
X338946Y19057D01*
X338618Y19161D01*
X338386Y19212D01*
D02*
G37*
G36*
X336811D02*
X336578Y19161D01*
X336251Y19057D01*
X335933Y18926D01*
X335628Y18767D01*
X335338Y18582D01*
X335065Y18373D01*
X334812Y18141D01*
X334580Y17887D01*
X334370Y17615D01*
X334186Y17325D01*
X334027Y17020D01*
X333895Y16702D01*
X333792Y16374D01*
X333740Y16142D01*
X336811D01*
Y19212D01*
D02*
G37*
G36*
X110039D02*
Y16142D01*
X113110D01*
X113058Y16374D01*
X112955Y16702D01*
X112823Y17020D01*
X112665Y17325D01*
X112480Y17615D01*
X112271Y17887D01*
X112039Y18141D01*
X111785Y18373D01*
X111512Y18582D01*
X111222Y18767D01*
X110917Y18926D01*
X110600Y19057D01*
X110272Y19161D01*
X110039Y19212D01*
D02*
G37*
G36*
X108465D02*
X108232Y19161D01*
X107904Y19057D01*
X107587Y18926D01*
X107282Y18767D01*
X106992Y18582D01*
X106719Y18373D01*
X106465Y18141D01*
X106233Y17887D01*
X106024Y17615D01*
X105839Y17325D01*
X105680Y17020D01*
X105549Y16702D01*
X105446Y16374D01*
X105394Y16142D01*
X108465D01*
Y19212D01*
D02*
G37*
G36*
X47047D02*
Y16142D01*
X50118D01*
X50066Y16374D01*
X49963Y16702D01*
X49831Y17020D01*
X49673Y17325D01*
X49488Y17615D01*
X49279Y17887D01*
X49046Y18141D01*
X48793Y18373D01*
X48520Y18582D01*
X48230Y18767D01*
X47925Y18926D01*
X47608Y19057D01*
X47280Y19161D01*
X47047Y19212D01*
D02*
G37*
G36*
X45472D02*
X45240Y19161D01*
X44912Y19057D01*
X44594Y18926D01*
X44289Y18767D01*
X43999Y18582D01*
X43727Y18373D01*
X43473Y18141D01*
X43241Y17887D01*
X43032Y17615D01*
X42847Y17325D01*
X42688Y17020D01*
X42557Y16702D01*
X42453Y16374D01*
X42402Y16142D01*
X45472D01*
Y19212D01*
D02*
G37*
G36*
X225393Y16339D02*
X222323D01*
Y13268D01*
X222555Y13319D01*
X222883Y13423D01*
X223201Y13554D01*
X223506Y13713D01*
X223796Y13898D01*
X224068Y14107D01*
X224322Y14339D01*
X224554Y14593D01*
X224763Y14866D01*
X224948Y15156D01*
X225107Y15461D01*
X225238Y15778D01*
X225342Y16106D01*
X225393Y16339D01*
D02*
G37*
G36*
X220748D02*
X217677D01*
X217729Y16106D01*
X217832Y15778D01*
X217964Y15461D01*
X218123Y15156D01*
X218307Y14866D01*
X218517Y14593D01*
X218749Y14339D01*
X219002Y14107D01*
X219275Y13898D01*
X219565Y13713D01*
X219870Y13554D01*
X220188Y13423D01*
X220515Y13319D01*
X220748Y13268D01*
Y16339D01*
D02*
G37*
G36*
X233110Y21067D02*
X229961D01*
X229696Y21052D01*
X229434Y21007D01*
X229179Y20934D01*
X228934Y20832D01*
X228702Y20704D01*
X228485Y20550D01*
X228288Y20374D01*
X228111Y20176D01*
X227957Y19960D01*
X227829Y19727D01*
X227728Y19482D01*
X227654Y19227D01*
X227610Y18966D01*
X227595Y18701D01*
Y15551D01*
X227610Y15286D01*
X227654Y15025D01*
X227728Y14770D01*
X227829Y14525D01*
X227957Y14292D01*
X228111Y14076D01*
X228288Y13878D01*
X228485Y13701D01*
X228702Y13548D01*
X228934Y13420D01*
X229179Y13318D01*
X229434Y13245D01*
X229696Y13200D01*
X229961Y13185D01*
X233110D01*
X233375Y13200D01*
X233637Y13245D01*
X233892Y13318D01*
X234137Y13420D01*
X234369Y13548D01*
X234585Y13701D01*
X234783Y13878D01*
X234960Y14076D01*
X235114Y14292D01*
X235242Y14525D01*
X235343Y14770D01*
X235417Y15025D01*
X235461Y15286D01*
X235476Y15551D01*
Y18701D01*
X235461Y18966D01*
X235417Y19227D01*
X235343Y19482D01*
X235242Y19727D01*
X235114Y19960D01*
X234960Y20176D01*
X234783Y20374D01*
X234585Y20550D01*
X234369Y20704D01*
X234137Y20832D01*
X233892Y20934D01*
X233637Y21007D01*
X233375Y21052D01*
X233110Y21067D01*
D02*
G37*
G36*
X211535Y21067D02*
X211192Y21052D01*
X210851Y21007D01*
X210515Y20933D01*
X210188Y20829D01*
X209870Y20697D01*
X209565Y20539D01*
X209275Y20354D01*
X209002Y20145D01*
X208749Y19913D01*
X208517Y19659D01*
X208307Y19386D01*
X208123Y19096D01*
X207964Y18791D01*
X207832Y18474D01*
X207729Y18146D01*
X207655Y17810D01*
X207610Y17469D01*
X207595Y17126D01*
X207610Y16782D01*
X207655Y16442D01*
X207729Y16106D01*
X207832Y15778D01*
X207964Y15461D01*
X208123Y15156D01*
X208307Y14866D01*
X208517Y14593D01*
X208749Y14339D01*
X209002Y14107D01*
X209275Y13898D01*
X209565Y13713D01*
X209870Y13554D01*
X210188Y13423D01*
X210515Y13319D01*
X210851Y13245D01*
X211192Y13200D01*
X211535Y13185D01*
X211879Y13200D01*
X212220Y13245D01*
X212555Y13319D01*
X212883Y13423D01*
X213201Y13554D01*
X213506Y13713D01*
X213796Y13898D01*
X214069Y14107D01*
X214322Y14339D01*
X214554Y14593D01*
X214763Y14866D01*
X214948Y15156D01*
X215107Y15461D01*
X215238Y15778D01*
X215342Y16106D01*
X215416Y16442D01*
X215461Y16782D01*
X215476Y17126D01*
X215461Y17469D01*
X215416Y17810D01*
X215342Y18146D01*
X215238Y18474D01*
X215107Y18791D01*
X214948Y19096D01*
X214763Y19386D01*
X214554Y19659D01*
X214322Y19913D01*
X214069Y20145D01*
X213796Y20354D01*
X213506Y20539D01*
X213201Y20697D01*
X212883Y20829D01*
X212555Y20933D01*
X212220Y21007D01*
X211879Y21052D01*
X211535Y21067D01*
D02*
G37*
G36*
X201535D02*
X201192Y21052D01*
X200851Y21007D01*
X200516Y20933D01*
X200188Y20829D01*
X199870Y20697D01*
X199565Y20539D01*
X199275Y20354D01*
X199002Y20145D01*
X198749Y19913D01*
X198517Y19659D01*
X198307Y19386D01*
X198123Y19096D01*
X197964Y18791D01*
X197832Y18474D01*
X197729Y18146D01*
X197654Y17810D01*
X197610Y17469D01*
X197595Y17126D01*
X197610Y16782D01*
X197654Y16442D01*
X197729Y16106D01*
X197832Y15778D01*
X197964Y15461D01*
X198123Y15156D01*
X198307Y14866D01*
X198517Y14593D01*
X198749Y14339D01*
X199002Y14107D01*
X199275Y13898D01*
X199565Y13713D01*
X199870Y13554D01*
X200188Y13423D01*
X200516Y13319D01*
X200851Y13245D01*
X201192Y13200D01*
X201535Y13185D01*
X201879Y13200D01*
X202220Y13245D01*
X202555Y13319D01*
X202883Y13423D01*
X203201Y13554D01*
X203506Y13713D01*
X203796Y13898D01*
X204068Y14107D01*
X204322Y14339D01*
X204554Y14593D01*
X204764Y14866D01*
X204948Y15156D01*
X205107Y15461D01*
X205239Y15778D01*
X205342Y16106D01*
X205416Y16442D01*
X205461Y16782D01*
X205476Y17126D01*
X205461Y17469D01*
X205416Y17810D01*
X205342Y18146D01*
X205239Y18474D01*
X205107Y18791D01*
X204948Y19096D01*
X204764Y19386D01*
X204554Y19659D01*
X204322Y19913D01*
X204068Y20145D01*
X203796Y20354D01*
X203506Y20539D01*
X203201Y20697D01*
X202883Y20829D01*
X202555Y20933D01*
X202220Y21007D01*
X201879Y21052D01*
X201535Y21067D01*
D02*
G37*
G36*
X341456Y14567D02*
X338386D01*
Y11496D01*
X338618Y11548D01*
X338946Y11651D01*
X339264Y11783D01*
X339569Y11942D01*
X339859Y12126D01*
X340131Y12336D01*
X340385Y12568D01*
X340617Y12821D01*
X340827Y13094D01*
X341011Y13384D01*
X341170Y13689D01*
X341301Y14006D01*
X341405Y14334D01*
X341456Y14567D01*
D02*
G37*
G36*
X336811D02*
X333740D01*
X333792Y14334D01*
X333895Y14006D01*
X334027Y13689D01*
X334186Y13384D01*
X334370Y13094D01*
X334580Y12821D01*
X334812Y12568D01*
X335065Y12336D01*
X335338Y12126D01*
X335628Y11942D01*
X335933Y11783D01*
X336251Y11651D01*
X336578Y11548D01*
X336811Y11496D01*
Y14567D01*
D02*
G37*
G36*
X113110D02*
X110039D01*
Y11496D01*
X110272Y11548D01*
X110600Y11651D01*
X110917Y11783D01*
X111222Y11942D01*
X111512Y12126D01*
X111785Y12336D01*
X112039Y12568D01*
X112271Y12821D01*
X112480Y13094D01*
X112665Y13384D01*
X112823Y13689D01*
X112955Y14006D01*
X113058Y14334D01*
X113110Y14567D01*
D02*
G37*
G36*
X108465D02*
X105394D01*
X105446Y14334D01*
X105549Y14006D01*
X105680Y13689D01*
X105839Y13384D01*
X106024Y13094D01*
X106233Y12821D01*
X106465Y12568D01*
X106719Y12336D01*
X106992Y12126D01*
X107282Y11942D01*
X107587Y11783D01*
X107904Y11651D01*
X108232Y11548D01*
X108465Y11496D01*
Y14567D01*
D02*
G37*
G36*
X50118D02*
X47047D01*
Y11496D01*
X47280Y11548D01*
X47608Y11651D01*
X47925Y11783D01*
X48230Y11942D01*
X48520Y12126D01*
X48793Y12336D01*
X49046Y12568D01*
X49279Y12821D01*
X49488Y13094D01*
X49673Y13384D01*
X49831Y13689D01*
X49963Y14006D01*
X50066Y14334D01*
X50118Y14567D01*
D02*
G37*
G36*
X45472D02*
X42402D01*
X42453Y14334D01*
X42557Y14006D01*
X42688Y13689D01*
X42847Y13384D01*
X43032Y13094D01*
X43241Y12821D01*
X43473Y12568D01*
X43727Y12336D01*
X43999Y12126D01*
X44289Y11942D01*
X44594Y11783D01*
X44912Y11651D01*
X45240Y11548D01*
X45472Y11496D01*
Y14567D01*
D02*
G37*
G36*
X355315Y19295D02*
X354972Y19280D01*
X354631Y19235D01*
X354295Y19161D01*
X353967Y19057D01*
X353649Y18926D01*
X353345Y18767D01*
X353055Y18582D01*
X352782Y18373D01*
X352528Y18141D01*
X352296Y17887D01*
X352087Y17615D01*
X351902Y17325D01*
X351743Y17020D01*
X351612Y16702D01*
X351508Y16374D01*
X351434Y16039D01*
X351389Y15698D01*
X351374Y15354D01*
X351389Y15011D01*
X351434Y14670D01*
X351508Y14334D01*
X351612Y14006D01*
X351743Y13689D01*
X351902Y13384D01*
X352087Y13094D01*
X352296Y12821D01*
X352528Y12568D01*
X352782Y12336D01*
X353055Y12126D01*
X353345Y11942D01*
X353649Y11783D01*
X353967Y11651D01*
X354295Y11548D01*
X354631Y11473D01*
X354972Y11429D01*
X355315Y11414D01*
X355658Y11429D01*
X355999Y11473D01*
X356335Y11548D01*
X356663Y11651D01*
X356980Y11783D01*
X357285Y11942D01*
X357575Y12126D01*
X357848Y12336D01*
X358102Y12568D01*
X358334Y12821D01*
X358543Y13094D01*
X358728Y13384D01*
X358887Y13689D01*
X359018Y14006D01*
X359121Y14334D01*
X359196Y14670D01*
X359241Y15011D01*
X359256Y15354D01*
X359241Y15698D01*
X359196Y16039D01*
X359121Y16374D01*
X359018Y16702D01*
X358887Y17020D01*
X358728Y17325D01*
X358543Y17615D01*
X358334Y17887D01*
X358102Y18141D01*
X357848Y18373D01*
X357575Y18582D01*
X357285Y18767D01*
X356980Y18926D01*
X356663Y19057D01*
X356335Y19161D01*
X355999Y19235D01*
X355658Y19280D01*
X355315Y19295D01*
D02*
G37*
G36*
X126969D02*
X126625Y19280D01*
X126284Y19235D01*
X125949Y19161D01*
X125621Y19057D01*
X125303Y18926D01*
X124998Y18767D01*
X124708Y18582D01*
X124435Y18373D01*
X124182Y18141D01*
X123950Y17887D01*
X123740Y17615D01*
X123556Y17325D01*
X123397Y17020D01*
X123265Y16702D01*
X123162Y16374D01*
X123088Y16039D01*
X123043Y15698D01*
X123028Y15354D01*
X123043Y15011D01*
X123088Y14670D01*
X123162Y14334D01*
X123265Y14006D01*
X123397Y13689D01*
X123556Y13384D01*
X123740Y13094D01*
X123950Y12821D01*
X124182Y12568D01*
X124435Y12336D01*
X124708Y12126D01*
X124998Y11942D01*
X125303Y11783D01*
X125621Y11651D01*
X125949Y11548D01*
X126284Y11473D01*
X126625Y11429D01*
X126969Y11414D01*
X127312Y11429D01*
X127653Y11473D01*
X127988Y11548D01*
X128316Y11651D01*
X128634Y11783D01*
X128939Y11942D01*
X129229Y12126D01*
X129502Y12336D01*
X129755Y12568D01*
X129987Y12821D01*
X130197Y13094D01*
X130381Y13384D01*
X130540Y13689D01*
X130672Y14006D01*
X130775Y14334D01*
X130849Y14670D01*
X130894Y15011D01*
X130909Y15354D01*
X130894Y15698D01*
X130849Y16039D01*
X130775Y16374D01*
X130672Y16702D01*
X130540Y17020D01*
X130381Y17325D01*
X130197Y17615D01*
X129987Y17887D01*
X129755Y18141D01*
X129502Y18373D01*
X129229Y18582D01*
X128939Y18767D01*
X128634Y18926D01*
X128316Y19057D01*
X127988Y19161D01*
X127653Y19235D01*
X127312Y19280D01*
X126969Y19295D01*
D02*
G37*
G36*
X63976D02*
X63633Y19280D01*
X63292Y19235D01*
X62956Y19161D01*
X62629Y19057D01*
X62311Y18926D01*
X62006Y18767D01*
X61716Y18582D01*
X61443Y18373D01*
X61190Y18141D01*
X60958Y17887D01*
X60748Y17615D01*
X60564Y17325D01*
X60405Y17020D01*
X60273Y16702D01*
X60170Y16374D01*
X60096Y16039D01*
X60051Y15698D01*
X60036Y15354D01*
X60051Y15011D01*
X60096Y14670D01*
X60170Y14334D01*
X60273Y14006D01*
X60405Y13689D01*
X60564Y13384D01*
X60748Y13094D01*
X60958Y12821D01*
X61190Y12568D01*
X61443Y12336D01*
X61716Y12126D01*
X62006Y11942D01*
X62311Y11783D01*
X62629Y11651D01*
X62956Y11548D01*
X63292Y11473D01*
X63633Y11429D01*
X63976Y11414D01*
X64320Y11429D01*
X64661Y11473D01*
X64996Y11548D01*
X65324Y11651D01*
X65642Y11783D01*
X65947Y11942D01*
X66237Y12126D01*
X66509Y12336D01*
X66763Y12568D01*
X66995Y12821D01*
X67204Y13094D01*
X67389Y13384D01*
X67548Y13689D01*
X67679Y14006D01*
X67783Y14334D01*
X67857Y14670D01*
X67902Y15011D01*
X67917Y15354D01*
X67902Y15698D01*
X67857Y16039D01*
X67783Y16374D01*
X67679Y16702D01*
X67548Y17020D01*
X67389Y17325D01*
X67204Y17615D01*
X66995Y17887D01*
X66763Y18141D01*
X66509Y18373D01*
X66237Y18582D01*
X65947Y18767D01*
X65642Y18926D01*
X65324Y19057D01*
X64996Y19161D01*
X64661Y19235D01*
X64320Y19280D01*
X63976Y19295D01*
D02*
G37*
%LPD*%
D10*
X66535Y184646D02*
X78937D01*
X80709Y182874D01*
X305709Y280906D02*
X309449Y284646D01*
Y287008D01*
X293701Y280906D02*
X305709D01*
D11*
X241142Y34252D02*
X255560D01*
X123622Y145276D02*
Y175197D01*
X109055Y145276D02*
Y175197D01*
X101969Y145276D02*
Y175197D01*
X94095Y103937D02*
Y112599D01*
X218111Y42914D02*
X231102D01*
X94095Y103937D02*
X94095Y103937D01*
D46*
X211535Y17126D02*
D03*
X221535D02*
D03*
X201535D02*
D03*
X174292Y49213D02*
D03*
X164292D02*
D03*
X154292D02*
D03*
X355315Y15354D02*
D03*
X337598D02*
D03*
X63976D02*
D03*
X46260D02*
D03*
X126969D02*
D03*
X109252D02*
D03*
D55*
X316929Y280315D02*
D03*
X290551Y264567D02*
D03*
X255560Y34252D02*
D03*
X241142D02*
D03*
X127559Y158661D02*
D03*
Y152756D02*
D03*
X112598Y142126D02*
D03*
X112205Y158661D02*
D03*
X209842Y109055D02*
D03*
X204331D02*
D03*
X181496Y114567D02*
D03*
Y120079D02*
D03*
X141339Y132283D02*
D03*
X145276Y136614D02*
D03*
X98032Y152756D02*
D03*
X120079D02*
D03*
X112205D02*
D03*
X105512D02*
D03*
X35433Y175197D02*
D03*
X75984Y152756D02*
D03*
X55905Y154724D02*
D03*
X243307Y37402D02*
D03*
X231102Y42913D02*
D03*
X219685Y34252D02*
D03*
X224016Y29134D02*
D03*
X218111Y42914D02*
D03*
X127559Y133465D02*
D03*
X105905Y133071D02*
D03*
X186614Y80709D02*
D03*
X205512Y85433D02*
D03*
X194882Y85827D02*
D03*
X99213Y70276D02*
D03*
X144488D02*
D03*
Y75394D02*
D03*
X186614D02*
D03*
X150000Y200787D02*
D03*
X116142Y200394D02*
D03*
X284646Y149606D02*
D03*
X265748Y168110D02*
D03*
X305118Y170472D02*
D03*
X284646Y187402D02*
D03*
X247638Y124409D02*
D03*
X247244Y149213D02*
D03*
X318110Y74803D02*
D03*
X317717Y85039D02*
D03*
X266929Y47638D02*
D03*
X216535Y74410D02*
D03*
X205512D02*
D03*
X216535Y63386D02*
D03*
Y85433D02*
D03*
X227559D02*
D03*
Y63386D02*
D03*
X205512D02*
D03*
X202362Y97244D02*
D03*
X118504Y83071D02*
D03*
X143701Y113779D02*
D03*
X135039D02*
D03*
X72441Y121260D02*
D03*
Y113386D02*
D03*
Y104331D02*
D03*
X19685Y94488D02*
D03*
X26378D02*
D03*
X34646D02*
D03*
Y75590D02*
D03*
X26378D02*
D03*
X19685D02*
D03*
X34646Y64173D02*
D03*
Y50394D02*
D03*
X120079Y133071D02*
D03*
X112992D02*
D03*
X96457D02*
D03*
X49606Y148819D02*
D03*
X22047Y213779D02*
D03*
X20866Y232677D02*
D03*
X20472Y255906D02*
D03*
X39370Y274016D02*
D03*
X126378Y178347D02*
D03*
Y238976D02*
D03*
X150787Y239370D02*
D03*
X144095Y296063D02*
D03*
X149213Y177953D02*
D03*
X176772Y150000D02*
D03*
X181496Y125591D02*
D03*
X149606Y140551D02*
D03*
X98032Y158661D02*
D03*
X120079D02*
D03*
X105512D02*
D03*
X198819Y109055D02*
D03*
X127559Y142126D02*
D03*
X120079D02*
D03*
X135827Y94882D02*
D03*
X120472Y113779D02*
D03*
X111811D02*
D03*
X81496Y104724D02*
D03*
Y89370D02*
D03*
X94488Y38583D02*
D03*
X116142Y165354D02*
D03*
X112598Y178347D02*
D03*
X123622Y145276D02*
D03*
Y175197D02*
D03*
X94095Y105118D02*
D03*
X94095Y113780D02*
D03*
X34646Y56693D02*
D03*
X127165Y89370D02*
D03*
X76772Y82677D02*
D03*
X99213Y64764D02*
D03*
Y75787D02*
D03*
X144488Y64764D02*
D03*
X105118Y178347D02*
D03*
X105512Y196850D02*
D03*
X92520Y212598D02*
D03*
X116142Y145276D02*
D03*
X120079Y178347D02*
D03*
X142913Y12598D02*
D03*
Y18898D02*
D03*
X32283Y232677D02*
D03*
X34646Y255906D02*
D03*
X32283Y213779D02*
D03*
X53150Y257087D02*
D03*
Y274016D02*
D03*
X27165Y182677D02*
D03*
X231496Y90945D02*
D03*
X194882Y60630D02*
D03*
X200787Y90551D02*
D03*
X68898Y39370D02*
D03*
X43307D02*
D03*
X76378Y56693D02*
D03*
Y69685D02*
D03*
X194882Y66535D02*
D03*
Y72835D02*
D03*
X99213Y83858D02*
D03*
X144488Y82284D02*
D03*
X105118Y142126D02*
D03*
X98425D02*
D03*
X60630Y160630D02*
D03*
X42126Y182677D02*
D03*
X207480Y123228D02*
D03*
X101969Y145276D02*
D03*
X109055D02*
D03*
Y175197D02*
D03*
X101969D02*
D03*
X145866Y96063D02*
D03*
X100591Y96063D02*
D03*
X60827Y78346D02*
D03*
X194882Y53937D02*
D03*
X258268Y49213D02*
D03*
X261417Y52362D02*
D03*
X194882Y44488D02*
D03*
X237008Y44882D02*
D03*
X209842D02*
D03*
X325197Y30315D02*
D03*
Y37402D02*
D03*
X274803Y79921D02*
D03*
X264567D02*
D03*
X274803Y75197D02*
D03*
Y84252D02*
D03*
X243307Y85827D02*
D03*
X249606D02*
D03*
X227953Y75984D02*
D03*
X238583Y78740D02*
D03*
X253937Y59055D02*
D03*
Y72441D02*
D03*
X239764Y60236D02*
D03*
X246457Y59055D02*
D03*
Y72441D02*
D03*
X255118Y79528D02*
D03*
X239764Y71260D02*
D03*
X232283Y110236D02*
D03*
X253543Y31102D02*
D03*
Y37402D02*
D03*
X55512Y64567D02*
D03*
X98425Y196850D02*
D03*
X78740Y275590D02*
D03*
X70866D02*
D03*
X78740Y261811D02*
D03*
X86614D02*
D03*
X70866D02*
D03*
X86614Y250000D02*
D03*
Y228346D02*
D03*
Y212598D02*
D03*
X98425Y178347D02*
D03*
X29921Y196792D02*
D03*
X39370Y201910D02*
D03*
X29921D02*
D03*
X39370Y196792D02*
D03*
X34645D02*
D03*
Y201910D02*
D03*
X50394Y199213D02*
D03*
X57480Y184646D02*
D03*
X66535Y184646D02*
D03*
X66929Y205512D02*
D03*
X73622Y189961D02*
D03*
X80709Y182874D02*
D03*
X69291Y165748D02*
D03*
Y178347D02*
D03*
X69882Y189961D02*
D03*
X63386Y205512D02*
D03*
X70472Y205512D02*
D03*
X69291Y172047D02*
D03*
X62205Y63779D02*
D03*
X265748Y118504D02*
D03*
X253150D02*
D03*
X237402D02*
D03*
X277559Y107480D02*
D03*
Y99606D02*
D03*
X232283Y106299D02*
D03*
Y114173D02*
D03*
X239764Y100787D02*
D03*
X252756Y91732D02*
D03*
X231890Y58661D02*
D03*
X264567Y74803D02*
D03*
X94488Y32283D02*
D03*
X78740Y18898D02*
D03*
Y11811D02*
D03*
X167323Y38583D02*
D03*
Y32283D02*
D03*
X290551Y37402D02*
D03*
Y30315D02*
D03*
X243307Y31102D02*
D03*
X214567Y39370D02*
D03*
X246850Y97244D02*
D03*
X243701Y103543D02*
D03*
X214567Y103150D02*
D03*
X220866D02*
D03*
X235433Y95669D02*
D03*
X262992Y100000D02*
D03*
X261417Y103150D02*
D03*
X252756Y102362D02*
D03*
X293701Y280906D02*
D03*
X309449Y287008D02*
D03*
X261024Y68898D02*
D03*
Y62598D02*
D03*
X120472Y266142D02*
D03*
X44488Y244882D02*
D03*
X48425D02*
D03*
X52362D02*
D03*
X106299Y231511D02*
D03*
Y246442D02*
D03*
X114173Y231511D02*
D03*
Y246442D02*
D03*
X110236Y231511D02*
D03*
Y246442D02*
D03*
X44488Y233071D02*
D03*
X48425D02*
D03*
X52362D02*
D03*
X295276Y299213D02*
D03*
Y293307D02*
D03*
Y287008D02*
D03*
X311024Y280315D02*
D03*
X300787Y275590D02*
D03*
X297047D02*
D03*
X304528D02*
D03*
D78*
X242339Y249016D02*
X242913D01*
X241975Y248652D02*
X242339Y249016D01*
X241975Y248078D02*
Y248652D01*
X235630Y241732D02*
X241975Y248078D01*
X212598Y241732D02*
X235630D01*
X197047Y283465D02*
X212598D01*
X197047Y246654D02*
Y283465D01*
Y318307D01*
X203937Y325197D02*
X212598D01*
X197047Y318307D02*
X203937Y325197D01*
X201969Y241732D02*
X212598D01*
X197047Y246654D02*
X201969Y241732D01*
X212598D02*
X212598Y241732D01*
D79*
X116142Y145276D02*
Y165354D01*
Y145276D02*
X116142Y145276D01*
X222441Y305512D02*
X227559Y300394D01*
Y264173D02*
X232874Y258858D01*
X227559Y264173D02*
Y300394D01*
X232874Y258858D02*
X242913D01*
X212598Y305512D02*
X222441D01*
X264567Y79921D02*
X274803D01*
D80*
X231102Y42914D02*
X231102Y42913D01*
D82*
X242913Y268701D02*
D03*
Y258858D02*
D03*
Y278543D02*
D03*
Y288386D02*
D03*
Y249016D02*
D03*
X212598Y231890D02*
D03*
Y241732D02*
D03*
X212598Y273622D02*
D03*
Y283465D02*
D03*
Y325197D02*
D03*
Y315354D02*
D03*
D83*
X242913Y298228D02*
D03*
X212598Y222047D02*
D03*
X212598Y263779D02*
D03*
Y305512D02*
D03*
D84*
X326693Y315000D02*
D03*
X374095D02*
D03*
D85*
X345472Y304331D02*
D03*
X355315Y296457D02*
D03*
Y304331D02*
D03*
D86*
X345472Y296457D02*
D03*
D87*
X231535Y17126D02*
D03*
D88*
X184292Y49213D02*
D03*
D89*
X80905Y291339D02*
D03*
X120276D02*
D03*
X110433D02*
D03*
X90748D02*
D03*
X100591D02*
D03*
X48228D02*
D03*
D90*
X130118D02*
D03*
X58071D02*
D03*
D91*
X359842Y25197D02*
D03*
X333071D02*
D03*
X68504D02*
D03*
X41732D02*
D03*
X131496D02*
D03*
X104724D02*
D03*
D92*
X258268Y49213D02*
X261417Y52362D01*
X184292Y49213D02*
X258268D01*
M02*
